<?xml version="1.0" standalone="no"?>
<!DOCTYPE svg PUBLIC "-//W3C//DTD SVG 20010904//EN"
 "http://www.w3.org/TR/2001/REC-SVG-20010904/DTD/svg10.dtd">
<svg version="1.0" xmlns="http://www.w3.org/2000/svg"
 width="2000.000000pt" height="2000.000000pt" viewBox="0 0 2000.000000 2000.000000"
 preserveAspectRatio="xMidYMid meet">

<g transform="translate(0.000000,2000.000000) scale(0.100000,-0.100000)"
fill="#ffffff" stroke="none">
<path d="M14723 16796 c-96 -31 -173 -112 -252 -266 -103 -202 -188 -500 -175
-621 9 -87 27 -148 53 -178 30 -34 86 -61 130 -61 71 0 72 -2 36 -215 -54
-320 -75 -496 -81 -681 -10 -290 16 -431 106 -569 36 -55 52 -69 106 -96 64
-32 67 -32 272 -40 114 -5 281 -13 372 -18 327 -20 682 -12 836 17 62 13 204
60 224 76 8 7 28 18 45 26 54 27 144 125 175 192 35 75 49 130 96 383 86 459
104 603 104 829 0 221 -22 317 -92 408 -22 28 -44 41 -91 57 -73 24 -102 27
-427 48 -356 22 -414 27 -426 35 -7 5 -13 52 -16 117 -4 95 -8 116 -34 167
-23 48 -38 63 -74 82 -71 35 -111 29 -260 -42 -83 -40 -162 -48 -214 -21 -15
8 -32 13 -36 10 -4 -3 -19 4 -32 15 -22 17 -26 30 -32 111 -8 108 -35 171 -92
214 -31 24 -48 29 -108 32 -42 1 -88 -3 -113 -11z m1162 -826 c72 -5 231 -17
355 -25 317 -21 322 -23 353 -88 27 -56 39 -250 27 -412 -10 -136 -89 -655
-131 -864 -42 -215 -132 -314 -313 -346 -167 -29 -991 -55 -1162 -37 -185 21
-298 72 -354 159 -69 110 -90 250 -71 478 12 138 48 412 75 570 8 44 20 116
27 160 14 90 24 125 38 125 12 0 29 -78 36 -175 11 -142 36 -279 61 -335 29
-64 92 -133 149 -163 184 -96 435 137 600 558 l32 80 50 0 c85 0 118 51 72
109 -12 15 -32 32 -45 36 -29 12 -30 29 -4 114 24 76 3 71 205 56z"/>
<path d="M15970 15409 c-41 -10 -106 -18 -143 -19 -97 0 -167 -33 -188 -88
-23 -59 42 -85 144 -59 34 9 100 19 147 22 96 7 165 22 196 42 37 24 37 91 0
115 -18 12 -75 7 -156 -13z"/>
<path d="M15760 14844 c-316 -14 -715 -81 -835 -141 -46 -23 -75 -54 -75 -79
0 -46 31 -47 232 -5 298 61 473 81 763 86 l180 3 22 27 c28 32 29 55 4 86 -18
22 -27 24 -118 25 -54 0 -132 -1 -173 -2z"/>
<path d="M4185 15990 c-109 -10 -224 -87 -286 -193 -33 -57 -35 -58 -69 -52
-93 18 -141 24 -205 24 -161 1 -340 -106 -409 -245 -14 -28 -32 -57 -40 -64
-9 -6 -55 -13 -105 -16 -105 -4 -193 -30 -266 -79 -82 -54 -147 -125 -171
-185 -22 -53 -66 -90 -150 -124 -144 -58 -167 -71 -209 -118 -55 -61 -70 -94
-96 -214 -24 -110 -23 -108 -96 -188 -28 -32 -64 -83 -80 -114 -25 -52 -28
-67 -28 -162 1 -91 5 -117 32 -195 17 -49 44 -130 58 -180 74 -247 136 -319
323 -374 82 -25 97 -43 86 -111 -8 -49 12 -169 37 -220 25 -52 150 -184 205
-216 27 -16 74 -29 132 -38 53 -8 100 -21 114 -32 12 -9 49 -52 81 -93 31 -42
84 -110 117 -151 111 -139 196 -255 224 -301 32 -55 37 -84 85 -454 15 -114
23 -348 13 -374 -6 -16 -18 -25 -36 -27 -15 -2 -38 -10 -49 -19 -12 -8 -39
-26 -59 -40 -38 -26 -73 -78 -63 -95 10 -17 -29 -45 -151 -109 -338 -180 -617
-401 -902 -716 -124 -137 -183 -212 -341 -425 -24 -31 -80 -120 -193 -305 -43
-71 -196 -371 -255 -500 -144 -317 -322 -849 -401 -1200 -130 -577 -207 -1252
-174 -1512 7 -48 17 -135 23 -193 47 -436 232 -955 507 -1420 47 -79 50 -84
121 -189 76 -112 230 -319 281 -376 20 -22 48 -56 62 -76 59 -80 311 -329 355
-350 62 -30 174 -24 257 14 61 28 91 33 101 17 3 -5 15 -65 25 -132 28 -173
47 -240 96 -343 71 -148 141 -219 245 -246 40 -11 50 -10 84 7 21 10 42 26 46
34 29 57 41 91 51 149 13 75 24 95 39 68 33 -58 258 -281 311 -308 56 -29 129
-42 162 -30 49 19 61 66 61 249 0 89 1 162 2 162 1 0 28 -17 60 -39 93 -61
162 -92 219 -98 46 -5 55 -3 77 19 66 66 32 314 -74 545 -26 57 -34 82 -26 84
1 0 70 4 152 9 83 5 220 14 305 19 200 13 1149 14 1395 1 525 -28 551 -29
1035 -76 91 -8 233 -22 315 -30 431 -41 510 -43 590 -15 69 24 99 54 120 116
28 85 -1 271 -111 718 -65 263 -76 311 -143 612 -28 127 -60 268 -70 315 -11
47 -29 137 -41 200 -11 63 -27 147 -35 185 -42 204 -150 878 -175 1085 -5 41
-16 127 -24 190 -30 223 -64 557 -117 1120 -21 223 -25 370 -12 370 7 0 79
-27 161 -60 505 -203 961 -200 1397 11 55 27 109 54 119 61 11 7 52 33 90 57
216 133 487 390 689 650 75 95 109 143 212 291 43 63 174 272 221 353 166 287
414 791 414 839 0 8 -22 41 -50 72 -77 88 -81 85 124 105 121 12 196 36 301
94 184 104 314 246 371 407 22 61 27 94 28 175 1 55 -3 125 -7 155 -4 30 -4
61 1 67 4 7 30 17 58 22 95 19 188 85 261 186 21 29 24 30 99 28 100 -2 123
-8 134 -37 5 -13 9 -397 9 -865 1 -503 5 -870 11 -912 34 -241 129 -416 264
-487 l51 -27 665 3 c652 2 1247 15 1505 32 146 9 277 39 342 77 102 60 129
133 120 333 -6 135 -17 196 -117 705 -47 242 -47 243 -94 515 -19 113 -44 275
-55 360 -12 85 -25 187 -31 225 -13 86 -56 517 -65 640 -3 50 -10 149 -15 220
-6 72 -15 229 -20 350 -11 242 -25 327 -68 419 -40 86 -73 120 -150 158 -64
32 -72 33 -207 36 -77 2 -176 -1 -220 -7 -44 -6 -133 -18 -198 -26 -64 -8
-145 -19 -180 -25 -66 -11 -295 -33 -512 -51 -292 -22 -535 -62 -685 -111
-185 -60 -257 -104 -295 -183 l-27 -55 7 -181 7 -181 -23 7 c-13 4 -44 19 -69
33 -36 21 -62 27 -131 30 l-86 4 -43 -38 c-24 -22 -51 -58 -62 -80 -17 -41
-37 -195 -36 -282 0 -23 -2 -45 -5 -48 -3 -3 -47 -10 -99 -14 -98 -9 -131 -17
-189 -45 -35 -17 -36 -17 -90 13 -129 70 -331 71 -484 2 -59 -27 -163 -95
-222 -145 -22 -20 -43 -32 -46 -28 -3 4 18 76 45 158 71 215 98 335 98 430 -2
235 -136 199 -330 -87 -30 -45 -60 -82 -65 -82 -6 -1 -18 48 -28 109 -28 172
-65 212 -154 165 -129 -69 -370 -490 -464 -812 -12 -43 -27 -78 -33 -78 -6 0
-35 18 -64 39 -131 99 -229 43 -297 -169 -18 -55 -146 -409 -183 -505 -66
-169 -192 -431 -286 -590 -159 -271 -383 -503 -596 -618 -83 -45 -223 -91
-323 -107 -100 -17 -368 -7 -452 15 -150 40 -247 71 -341 106 -178 69 -469
225 -714 384 -386 251 -595 366 -725 402 -160 43 -215 65 -259 104 -58 51 -57
61 19 175 225 336 327 684 341 1163 14 456 -52 950 -221 1676 -86 365 -86 367
-73 384 7 9 37 43 66 75 63 72 93 123 122 211 19 56 22 83 18 178 -3 104 -6
117 -39 187 -48 102 -113 167 -214 215 -74 35 -85 37 -171 37 -93 -1 -149 -13
-237 -51 -53 -23 -107 -27 -124 -10 -31 31 -178 100 -198 93 -8 -4 -21 -2 -28
3 -14 11 -29 11 -112 3z m671 -815 c49 -20 90 -59 115 -108 27 -53 143 -516
198 -796 91 -456 123 -755 123 -1136 0 -207 -4 -275 -22 -395 -60 -397 -178
-677 -388 -922 -59 -70 -87 -94 -136 -118 -204 -99 -447 -75 -663 66 -166 109
-378 319 -559 554 -110 143 -443 638 -451 671 -3 9 11 40 31 68 46 68 51 87
32 116 -23 35 -60 32 -108 -9 -51 -44 -88 -61 -165 -77 -84 -17 -153 3 -215
64 -65 63 -83 107 -83 202 0 66 5 90 26 135 48 101 143 174 252 194 33 6 37 9
31 32 -5 17 1 35 19 62 24 34 25 41 15 80 -8 32 -8 46 1 55 6 6 11 17 11 24 0
6 13 34 28 60 16 26 50 89 77 138 243 453 424 658 688 780 40 18 118 49 174
69 116 40 607 182 698 202 76 17 219 11 271 -11z m9189 -1147 c50 -33 62 -75
85 -303 132 -1291 240 -2146 366 -2895 70 -412 71 -450 16 -486 -39 -25 -214
-32 -832 -33 -283 -1 -704 -8 -935 -17 -231 -8 -456 -12 -499 -9 -181 15 -258
81 -295 255 -23 106 -29 361 -26 1075 l2 720 79 6 c153 10 237 89 251 234 11
117 -38 280 -123 413 -25 39 -42 76 -39 82 4 6 46 37 93 68 48 31 106 76 130
99 38 36 43 45 38 75 -5 34 -37 68 -62 68 -45 0 -129 -56 -232 -154 -51 -49
-53 -50 -78 -36 -15 8 -39 33 -55 55 -27 39 -28 44 -35 210 -7 195 1 243 48
287 78 73 180 112 362 139 170 24 839 102 1126 130 63 6 174 17 245 24 72 7
176 13 233 14 90 1 106 -2 137 -21z m-4224 -680 c17 -31 7 -121 -41 -387 -41
-227 -42 -234 -24 -252 31 -29 66 -33 96 -9 25 19 125 211 169 324 35 89 113
224 178 306 16 20 22 23 33 12 18 -18 -20 -157 -83 -302 -130 -297 -191 -467
-203 -567 -8 -68 45 -119 96 -92 30 16 57 43 189 193 130 148 206 214 309 269
60 33 83 40 149 44 95 7 194 -17 189 -45 -2 -9 -59 -54 -126 -99 -295 -198
-489 -378 -558 -520 -34 -70 -38 -86 -39 -158 0 -70 4 -87 29 -132 83 -149
250 -237 418 -219 150 15 246 100 358 314 24 45 50 88 57 94 30 25 63 -44 63
-133 0 -138 -124 -304 -313 -418 -139 -84 -254 -111 -466 -111 l-117 0 -35 38
c-20 20 -65 73 -100 117 -35 44 -138 170 -229 280 -199 241 -308 382 -384 495
-64 96 -63 81 -14 250 68 235 204 519 326 683 40 52 56 58 73 25z m1099 -958
c12 -24 32 -57 44 -73 l21 -28 -53 -46 c-39 -34 -64 -67 -93 -127 -58 -116
-114 -196 -162 -231 -35 -25 -53 -30 -114 -33 -62 -4 -79 -1 -128 23 -102 50
-159 147 -136 231 30 112 204 288 477 483 l99 72 11 -114 c8 -80 18 -125 34
-157z m-1762 69 c19 -24 80 -100 135 -168 56 -68 136 -165 177 -215 145 -178
365 -442 420 -506 31 -36 122 -142 203 -237 81 -94 151 -174 157 -178 17 -11
11 -38 -21 -100 -84 -163 -151 -285 -160 -290 -11 -7 -512 430 -691 604 -71
68 -167 169 -215 225 -47 56 -131 145 -187 199 l-100 99 63 186 c112 333 154
436 174 429 7 -2 27 -23 45 -48z m-5358 -610 c155 -154 303 -251 451 -297 114
-35 214 -45 319 -33 51 7 95 9 98 6 12 -11 -27 -64 -108 -146 -135 -136 -271
-191 -475 -193 -89 0 -124 4 -185 23 -108 33 -197 80 -252 131 l-49 45 -4 250
c-3 218 -10 312 -30 440 -4 27 1 24 57 -40 34 -38 114 -122 178 -186z m1300
-497 c225 -332 330 -650 330 -994 0 -125 -1 -130 -26 -155 -23 -23 -31 -25
-77 -20 -29 3 -106 27 -172 54 -137 56 -130 42 -91 178 68 231 82 476 41 680
-30 147 -59 233 -132 380 l-54 110 46 -50 c25 -27 86 -110 135 -183z m-222 26
c22 -46 50 -112 61 -148 65 -197 67 -492 6 -754 -20 -85 -49 -149 -86 -185
-40 -40 -72 -46 -122 -22 -47 23 -500 346 -665 474 -206 158 -484 408 -464
415 6 2 47 -13 91 -32 137 -62 215 -78 391 -80 183 -1 256 15 404 92 102 52
221 161 289 265 21 31 42 57 46 57 5 0 27 -37 49 -82z m-1013 -640 c117 -94
324 -247 619 -457 80 -57 146 -105 146 -108 0 -2 -26 -28 -57 -56 -32 -29 -95
-87 -140 -129 -131 -122 -218 -163 -285 -135 -54 23 -181 130 -255 216 -156
180 -279 403 -363 660 -47 143 -100 353 -100 399 0 17 34 -12 158 -136 86 -87
211 -201 277 -254z m-548 -5523 c13 -38 35 -102 48 -142 14 -39 25 -85 25
-101 0 -36 -39 -91 -111 -156 -30 -27 -119 -110 -199 -186 -189 -177 -218
-204 -320 -281 -191 -146 -398 -263 -446 -255 -15 3 -44 17 -64 31 -53 37
-225 225 -213 233 5 4 66 51 134 105 623 490 1079 830 1108 824 7 -1 24 -33
38 -72z m413 -503 c221 -86 240 -94 240 -103 0 -4 -28 -30 -63 -58 -169 -134
-217 -234 -182 -378 10 -37 40 -117 67 -178 101 -221 138 -328 119 -339 -4 -3
-64 51 -134 119 -160 157 -218 189 -274 150 -13 -9 -28 -33 -34 -54 -12 -41
-12 -39 47 -338 32 -165 32 -193 -6 -173 -21 11 -143 161 -265 323 -95 128
-141 167 -193 167 -83 0 -94 -32 -90 -263 2 -96 -1 -179 -5 -183 -13 -13 -112
103 -151 176 -54 103 -79 205 -96 394 -11 128 -8 136 67 187 119 81 346 282
545 484 66 65 131 127 145 136 31 21 37 19 263 -69z"/>
<path d="M4714 14455 c-207 -49 -314 -104 -314 -160 0 -14 21 -74 46 -133 64
-150 127 -341 243 -744 55 -191 110 -366 121 -388 17 -33 25 -40 51 -40 17 0
39 5 49 10 43 23 43 41 -4 202 -147 504 -188 640 -212 703 -108 287 -122 347
-86 358 112 36 302 111 334 132 45 30 49 62 8 82 -38 19 -81 15 -236 -22z"/>
<path d="M4015 14241 c-44 -10 -120 -30 -170 -46 -49 -15 -122 -36 -162 -47
-86 -24 -119 -52 -104 -91 17 -44 46 -43 248 8 256 64 363 110 363 155 0 43
-50 48 -175 21z"/>
<path d="M4901 14101 c-53 -14 -109 -42 -116 -59 -9 -24 28 -77 57 -80 32 -4
145 24 176 44 26 17 30 65 7 84 -19 16 -81 21 -124 11z"/>
<path d="M4164 13919 c-105 -14 -228 -72 -283 -134 -37 -42 -37 -45 -10 -79
28 -35 46 -33 109 14 62 46 134 75 222 90 75 12 94 29 73 69 -19 37 -50 48
-111 40z"/>
<path d="M2780 13482 c-52 -53 -52 -152 1 -204 38 -38 86 -37 81 2 -2 14 -10
32 -18 41 -24 27 -28 84 -10 129 9 22 16 45 16 50 0 20 -43 9 -70 -18z"/>
<path d="M4222 12490 c-27 -43 -15 -81 42 -136 63 -61 124 -90 217 -105 90
-14 142 0 192 52 20 22 37 44 37 48 0 5 -55 11 -122 13 -139 4 -172 16 -282
102 -32 25 -61 46 -65 46 -3 0 -12 -9 -19 -20z"/>
<path d="M4360 12171 c0 -25 59 -67 113 -82 33 -9 42 -7 58 7 47 42 7 71 -119
89 -48 6 -52 5 -52 -14z"/>
<path d="M13395 13254 c-38 -6 -137 -30 -220 -52 -206 -57 -549 -123 -673
-131 -98 -6 -105 -8 -128 -34 -35 -41 -31 -72 13 -96 35 -18 207 -13 333 10
63 11 246 49 405 84 160 35 304 66 320 69 56 12 95 43 95 75 0 32 -30 76 -57
83 -10 3 -49 -1 -88 -8z"/>
<path d="M13679 12666 c-2 -2 -29 -6 -59 -9 -30 -3 -147 -24 -260 -47 -252
-51 -365 -58 -517 -36 -104 15 -117 15 -175 0 -132 -34 -206 -84 -227 -155
-11 -38 -11 -45 7 -68 28 -39 52 -37 109 9 98 77 111 79 388 54 201 -19 321
-11 432 27 59 20 190 42 318 53 149 14 245 49 245 92 0 28 -29 71 -52 78 -25
6 -202 8 -209 2z"/>
<path d="M13760 11969 c-36 -4 -182 -15 -325 -23 -474 -29 -579 -37 -715 -57
-147 -20 -248 -50 -275 -79 -15 -17 -15 -21 -1 -48 9 -17 21 -34 28 -38 17
-10 126 -7 323 11 88 8 223 19 300 25 77 6 217 17 312 25 94 8 229 15 300 15
221 0 295 23 301 91 5 56 -31 81 -115 84 -38 1 -97 -1 -133 -6z"/>
<path d="M13720 11404 c-58 -7 -181 -23 -275 -34 -581 -72 -898 -135 -1045
-210 -52 -26 -60 -35 -60 -71 0 -31 28 -59 59 -59 12 0 99 18 194 39 392 89
716 141 1117 176 198 18 249 32 251 69 2 38 -2 61 -17 84 -17 26 -58 27 -224
6z"/>
<path d="M11315 14502 c-34 -7 -46 -33 -39 -82 3 -25 13 -58 21 -75 28 -55
186 -310 207 -332 22 -25 63 -30 89 -10 17 11 17 15 -1 67 -27 78 -159 338
-194 383 -34 43 -55 55 -83 49z"/>
<path d="M10543 14270 c-12 -5 -25 -20 -29 -34 -14 -57 81 -137 321 -273 50
-28 110 -62 135 -76 25 -14 76 -42 114 -62 l69 -37 26 20 c37 27 38 58 5 93
-28 29 -273 200 -411 287 -120 75 -187 99 -230 82z"/>
<path d="M16965 13791 c-141 -34 -348 -211 -484 -413 -121 -181 -168 -367
-114 -458 32 -55 70 -70 180 -70 59 0 117 6 139 14 70 24 114 29 114 12 0 -8
-21 -68 -46 -133 -173 -451 -177 -460 -354 -893 -198 -484 -318 -825 -408
-1160 -31 -115 -36 -151 -36 -245 -1 -100 2 -115 26 -160 82 -157 269 -229
728 -280 132 -14 340 -48 410 -65 19 -5 105 -21 190 -35 85 -14 189 -33 230
-41 128 -24 388 -48 540 -48 177 -1 192 5 302 115 171 173 289 470 535 1349
251 900 297 1418 140 1596 -64 74 -67 74 -494 40 -357 -29 -656 -41 -682 -26
-18 9 -18 13 5 119 19 88 22 120 14 164 -17 106 -62 163 -145 186 -50 14 -215
14 -285 1 -42 -8 -59 -7 -84 5 -37 18 -44 34 -82 185 -30 119 -41 144 -81 184
-57 58 -159 81 -258 57z m2019 -1051 c16 -45 19 -85 19 -220 1 -167 -6 -217
-54 -430 -10 -47 -42 -186 -69 -310 -132 -590 -180 -774 -272 -1055 -61 -185
-207 -517 -281 -637 -42 -69 -100 -116 -155 -124 -115 -17 -601 43 -1027 127
-264 52 -516 97 -665 119 -80 12 -169 28 -199 36 -113 32 -171 98 -171 195 0
56 38 228 85 384 15 50 32 106 37 125 26 91 149 418 271 720 74 184 145 360
157 390 12 30 26 64 31 75 5 11 17 44 27 74 10 30 23 56 30 59 6 2 26 -21 45
-50 81 -128 226 -190 365 -158 150 35 346 190 461 368 30 45 58 82 62 82 4 0
29 -11 55 -25 26 -14 58 -25 72 -25 28 0 72 35 72 57 0 28 -33 79 -73 114
l-41 36 17 45 18 45 262 0 c233 0 387 7 677 33 47 4 117 7 155 6 l70 -1 19
-55z"/>
<path d="M16970 11776 c-117 -32 -176 -97 -136 -148 18 -25 47 -23 136 9 l77
27 64 -23 c35 -12 82 -27 104 -33 48 -12 159 -4 235 17 102 28 176 29 324 5
125 -20 163 -22 419 -18 287 5 336 11 365 46 31 40 -2 90 -68 102 -26 5 -138
5 -263 -1 -192 -9 -234 -8 -355 8 -196 26 -333 23 -452 -10 -121 -34 -149 -34
-253 3 -92 32 -127 35 -197 16z"/>
<path d="M16975 11234 c-131 -26 -275 -117 -275 -174 0 -30 27 -60 54 -60 9 0
45 15 79 34 95 51 161 69 257 70 115 1 696 -31 899 -50 156 -14 165 -14 199 4
20 10 45 30 55 45 19 24 19 28 4 50 -33 51 -166 66 -777 87 -363 12 -404 12
-495 -6z"/>
<path d="M17645 10690 c-66 -4 -315 -11 -554 -15 -402 -8 -436 -10 -453 -27
-23 -23 -23 -60 1 -82 35 -31 127 -38 536 -37 487 1 670 10 708 36 39 25 38
74 -4 109 -34 29 -26 28 -234 16z"/>
<path d="M11447 11770 c-14 -11 -46 -55 -70 -98 -25 -43 -92 -143 -149 -222
-115 -163 -178 -274 -178 -317 0 -34 36 -73 67 -73 29 0 70 44 122 131 25 41
86 137 136 214 103 156 175 292 175 329 0 16 -7 27 -20 31 -11 3 -20 11 -20
16 0 16 -36 10 -63 -11z"/>
<path d="M14400 9129 c-164 -44 -278 -129 -478 -354 -104 -117 -207 -315 -249
-479 -21 -80 -27 -126 -27 -221 -1 -117 0 -122 33 -193 29 -60 42 -78 78 -99
102 -60 305 -33 448 58 71 46 82 50 93 36 5 -6 12 -91 14 -187 4 -127 9 -185
20 -211 18 -41 91 -107 128 -115 96 -22 102 -25 97 -47 -3 -12 -46 -184 -95
-382 -108 -430 -135 -564 -158 -791 -17 -164 -17 -177 0 -280 20 -121 32 -157
72 -209 43 -56 99 -84 185 -91 73 -6 284 6 469 26 52 6 340 17 640 25 951 25
1037 40 1107 184 24 49 28 70 31 166 4 112 -4 180 -67 615 -82 563 -86 602
-111 1072 -12 240 -47 457 -90 565 -67 168 -150 218 -321 194 -77 -10 -374
-74 -612 -131 -71 -16 -132 -30 -136 -30 -9 0 21 155 32 166 4 4 7 35 7 68 0
54 -5 67 -35 109 l-35 47 -93 0 c-50 0 -119 -7 -152 -15 -78 -19 -249 -20
-267 -2 -7 7 -21 16 -30 20 -10 3 -18 11 -18 17 0 5 -7 10 -15 10 -19 0 -23
22 -28 152 -5 122 -29 188 -88 247 -80 81 -197 101 -349 60z m1953 -899 c13
-12 28 -63 47 -161 39 -194 64 -403 100 -844 36 -435 57 -601 106 -865 40
-217 53 -399 35 -468 -10 -35 -19 -46 -45 -57 -48 -20 -463 -44 -1246 -70 -91
-4 -309 -13 -485 -21 -307 -14 -321 -14 -345 4 -80 58 -84 181 -19 582 43 264
164 811 229 1034 13 43 23 54 127 139 59 48 117 108 248 255 10 11 26 1 86
-52 115 -103 172 -121 216 -71 19 21 21 30 12 53 -20 56 -34 73 -115 137 -83
66 -93 78 -74 90 6 4 25 30 44 58 59 92 55 91 331 146 138 28 329 69 425 91
236 53 285 56 323 20z"/>
<path d="M15825 7460 c-386 -78 -626 -145 -772 -215 -50 -25 -100 -56 -112
-71 -19 -24 -19 -28 -6 -55 29 -54 69 -52 284 16 79 25 295 83 480 129 372 92
414 107 419 147 4 35 -34 78 -73 84 -16 2 -115 -13 -220 -35z"/>
<path d="M15955 7215 c-5 -2 -95 -27 -200 -56 -396 -108 -736 -241 -805 -314
-20 -22 -21 -25 -6 -53 9 -17 21 -34 28 -38 19 -12 73 -6 129 15 30 11 189 61
354 111 326 100 440 141 547 197 78 41 96 63 79 99 -15 34 -81 55 -126 39z"/>
<path d="M16075 6718 c-152 -26 -1001 -196 -1048 -210 -64 -19 -71 -58 -20
-118 31 -37 45 -38 233 -5 207 37 879 173 939 190 83 25 111 85 65 136 -23 26
-51 27 -169 7z"/>
</g>
</svg>
