<?xml version="1.0" standalone="no"?>
<!DOCTYPE svg PUBLIC "-//W3C//DTD SVG 20010904//EN"
 "http://www.w3.org/TR/2001/REC-SVG-20010904/DTD/svg10.dtd">
<svg version="1.0" xmlns="http://www.w3.org/2000/svg"
 width="1600.000000pt" height="1200.000000pt" viewBox="0 0 1600.000000 1200.000000"
 preserveAspectRatio="xMidYMid meet">

<g transform="translate(0.000000,1200.000000) scale(0.100000,-0.100000)"
fill="#ffffff" stroke="none">
<path d="M9537 9484 c-5 -5 -72 -9 -150 -10 -78 0 -170 -4 -204 -9 -42 -5 -71
-4 -90 4 -38 15 -206 -9 -268 -39 -92 -44 -167 -134 -241 -285 -16 -33 -30
-62 -31 -64 -2 -2 -36 28 -77 67 -105 100 -215 153 -366 178 -110 18 -345 18
-432 0 -76 -17 -195 -69 -277 -123 -82 -53 -257 -234 -327 -338 -120 -179
-163 -274 -190 -420 -25 -142 -17 -240 32 -378 28 -81 41 -105 87 -175 l36
-52 -24 -63 c-35 -92 -68 -174 -98 -244 -15 -35 -39 -91 -53 -125 -35 -84 -92
-209 -103 -228 -5 -8 -15 -14 -22 -12 -7 2 -65 6 -128 9 -97 4 -130 2 -206
-16 -200 -48 -389 -177 -600 -411 -60 -66 -118 -134 -131 -152 -179 -263 -314
-560 -408 -903 -26 -96 -64 -280 -85 -420 -17 -115 -57 -556 -64 -705 l-2 -55
-17 25 c-27 40 -122 363 -147 500 -7 36 -16 79 -21 95 -9 29 -29 146 -69 390
-48 298 -89 752 -98 1090 -7 257 -8 255 80 255 275 1 495 216 551 538 13 74
19 88 55 127 150 163 196 474 110 753 -69 227 -221 417 -407 508 -117 57 -285
73 -440 43 -92 -18 -224 -92 -300 -167 -83 -82 -118 -123 -126 -148 -11 -34
-64 -84 -89 -84 -40 0 -144 -59 -182 -103 -51 -59 -88 -149 -119 -287 -3 -14
-11 -20 -95 -76 -57 -37 -102 -95 -132 -169 -21 -52 -24 -76 -24 -180 0 -129
18 -204 72 -300 34 -62 151 -183 216 -225 30 -19 62 -48 71 -65 49 -90 66
-114 116 -166 39 -39 80 -68 135 -95 76 -37 85 -39 180 -39 102 0 177 18 217
52 26 23 33 -1 30 -107 -1 -52 1 -117 5 -145 l7 -50 6 40 c3 22 9 -84 13 -235
4 -151 12 -300 17 -330 5 -30 17 -122 25 -205 30 -286 126 -802 184 -990 12
-39 23 -105 18 -105 -6 0 -87 107 -87 114 0 13 -198 290 -339 476 -36 47 -141
177 -235 288 -94 112 -188 224 -208 249 -21 25 -136 148 -255 275 -120 126
-222 241 -227 254 -7 16 -6 35 2 57 28 79 6 161 -60 224 -43 41 -76 53 -148
53 -72 0 -105 -12 -149 -53 -85 -82 -93 -231 -17 -319 58 -66 188 -95 249 -55
54 35 62 30 269 -185 224 -235 277 -292 338 -368 24 -30 63 -75 86 -100 71
-74 415 -518 498 -641 20 -30 51 -75 68 -100 144 -202 302 -469 277 -469 -6 0
-35 11 -65 25 -59 27 -200 76 -349 121 -152 46 -212 80 -263 149 -24 33 -62
92 -85 130 -186 320 -228 372 -414 511 -105 79 -303 164 -433 188 -236 44
-480 113 -541 154 -15 9 -45 30 -68 45 -23 15 -58 45 -77 66 -285 311 -612
520 -966 616 -105 29 -304 55 -423 55 -273 0 -488 -74 -636 -220 -102 -100
-129 -160 -136 -292 -5 -86 -3 -107 22 -185 27 -89 67 -171 111 -230 90 -120
232 -262 359 -359 44 -34 259 -178 315 -212 29 -17 133 -79 212 -127 9 -5 58
-34 107 -62 193 -112 219 -145 220 -278 3 -201 31 -323 105 -449 100 -170 321
-328 571 -407 176 -56 503 -94 599 -70 107 27 345 7 461 -38 135 -52 199 -113
331 -309 161 -239 269 -352 382 -397 37 -15 76 -31 87 -35 62 -26 136 -32 289
-27 333 11 598 103 807 279 130 110 166 139 221 182 l58 44 47 -16 c39 -13 95
-16 303 -16 250 1 258 1 394 32 157 36 180 37 251 18 159 -43 288 -161 526
-480 177 -240 277 -321 474 -385 156 -51 368 -71 540 -52 206 23 267 25 318 7
83 -28 122 -51 263 -154 170 -124 257 -184 309 -212 76 -41 183 -69 263 -70
110 0 328 40 457 85 112 39 189 55 295 61 170 10 320 43 421 93 120 59 140 71
146 87 11 30 21 25 -452 254 -455 220 -1110 478 -1451 571 -96 26 -302 77
-328 81 -26 4 -21 21 7 29 24 6 150 -1 367 -20 63 -6 156 -13 205 -16 50 -4
176 -13 280 -21 384 -29 575 -43 785 -58 118 -9 269 -20 335 -26 66 -5 183
-14 260 -20 77 -5 199 -15 270 -20 72 -6 252 -19 400 -30 149 -11 385 -29 525
-40 420 -33 818 -61 943 -67 136 -7 137 -6 78 71 -199 258 -706 592 -1212 800
-368 150 -660 228 -984 261 -162 16 -195 22 -195 36 0 22 236 158 345 200 85
32 243 66 395 85 157 18 381 15 495 -7 36 -7 157 -12 300 -12 l240 0 95 31
c105 35 193 84 270 150 77 66 206 216 298 346 46 64 106 145 132 179 27 34 58
74 70 89 19 25 81 69 148 106 50 28 137 40 228 31 514 -47 797 -23 1014 85 63
32 87 47 178 108 18 13 74 68 123 123 70 79 100 123 144 210 30 61 63 136 74
168 18 52 18 59 4 64 -8 3 -182 3 -387 0 -1119 -18 -2513 -227 -3851 -578
-342 -90 -741 -216 -1129 -356 -281 -101 -346 -119 -279 -76 39 25 52 35 78
61 12 12 27 22 34 22 6 0 36 20 67 45 30 25 60 45 67 45 7 0 22 11 34 23 26
28 615 422 751 503 18 10 90 55 160 99 70 44 139 87 153 95 267 155 724 413
815 461 108 56 475 240 549 274 190 89 830 335 871 335 8 0 31 -16 53 -35 21
-19 64 -47 95 -61 48 -22 68 -26 122 -22 54 3 72 10 121 43 76 53 113 121 113
210 0 107 -38 176 -130 235 -43 28 -59 32 -119 32 -80 1 -132 -21 -193 -79
-43 -42 -67 -99 -76 -185 l-7 -63 -50 -17 c-27 -9 -93 -30 -145 -47 -52 -16
-129 -43 -170 -60 -41 -17 -79 -31 -83 -31 -5 0 -23 -6 -40 -14 -18 -8 -66
-29 -107 -46 -88 -36 -86 -36 -213 -95 -54 -25 -100 -45 -103 -45 -7 0 -487
-240 -584 -292 -47 -25 -105 -57 -130 -70 -45 -24 -441 -250 -470 -269 -32
-20 -198 -120 -249 -150 -30 -17 -93 -56 -140 -87 -47 -30 -105 -67 -128 -81
-295 -183 -891 -585 -945 -637 -35 -34 -20 18 43 146 153 312 265 597 424
1076 129 387 290 923 379 1264 16 58 36 132 46 165 10 33 21 76 24 95 10 56
24 67 93 72 35 2 59 0 56 -5 -3 -5 42 -6 108 -3 162 8 222 16 240 33 15 12 44
13 215 3 312 -18 594 -29 777 -29 163 -1 170 0 225 26 81 38 214 175 273 278
63 111 82 155 118 270 130 424 34 884 -211 1008 -46 23 -66 27 -140 27 -92 0
-94 0 -363 -98 -60 -22 -186 -67 -280 -100 -93 -33 -177 -63 -186 -67 -12 -5
-30 15 -73 79 -59 88 -101 128 -175 166 -69 35 -188 31 -306 -11 -142 -50
-185 -66 -260 -94 -38 -15 -81 -30 -95 -35 -14 -4 -83 -29 -154 -54 -129 -46
-166 -54 -166 -36 0 15 -131 150 -161 165 -15 8 -65 23 -111 33 -45 10 -98 26
-115 36 -36 18 -242 35 -256 20z m133 -74 l35 -5 -56 -43 c-30 -23 -72 -66
-92 -95 -47 -67 -305 -604 -295 -612 25 -20 47 -23 61 -7 8 9 78 146 155 304
139 283 141 287 199 332 32 25 68 46 79 46 12 0 39 7 60 16 71 30 162 1 242
-75 35 -33 41 -45 32 -56 -9 -11 -7 -12 11 -8 41 11 11 -15 -39 -33 -76 -28
-164 -64 -207 -86 -41 -19 -41 -21 -83 -156 -47 -149 -424 -1289 -521 -1572
-352 -1032 -548 -1565 -710 -1935 -24 -53 -186 -379 -225 -450 -40 -75 -126
-225 -133 -234 -7 -10 -47 20 -139 105 -55 51 -119 109 -144 129 -25 20 -94
85 -155 144 -60 58 -175 166 -255 240 -80 74 -152 142 -161 150 -8 9 -62 59
-119 111 -149 136 -142 128 -134 153 3 12 11 27 16 34 5 7 18 27 27 45 10 18
61 107 115 198 166 283 277 508 545 1108 71 158 147 325 169 372 22 47 77 171
122 275 205 473 500 1138 588 1325 79 169 154 234 297 261 89 16 92 11 39 -78
-174 -291 -281 -501 -270 -529 3 -8 16 -14 30 -14 21 0 34 18 97 138 140 266
206 377 259 433 30 32 86 52 159 57 73 5 73 5 66 -18 -4 -13 -26 -54 -49 -90
-22 -36 -46 -75 -53 -86 -7 -10 -62 -117 -123 -238 -115 -227 -128 -268 -84
-274 18 -3 33 20 104 160 189 372 272 499 347 530 60 25 137 45 148 40 5 -3
25 -8 45 -12z m1467 -21 c78 -38 152 -145 197 -285 20 -62 37 -266 21 -256 -5
3 -34 23 -63 44 -91 63 -135 73 -312 72 -177 -1 -218 -11 -363 -97 l-77 -46 6
42 c14 98 129 313 212 400 126 132 269 179 379 126z m1223 -12 c113 -67 193
-234 204 -423 2 -49 8 -97 11 -106 11 -28 -12 -21 -59 17 -23 19 -73 49 -112
67 -68 33 -71 33 -214 33 -163 0 -234 -16 -363 -83 -37 -19 -70 -32 -74 -28
-16 16 69 216 130 306 118 173 229 248 365 245 53 -1 76 -6 112 -28z m-1740
-164 c-17 -32 -43 -81 -58 -108 -111 -205 -157 -456 -133 -717 14 -147 47
-253 105 -339 58 -87 63 -105 34 -110 -41 -7 -1013 23 -1021 31 -8 8 14 83
117 395 52 160 111 342 131 405 68 216 87 251 148 269 18 5 102 35 187 66 85
31 218 78 295 105 77 27 158 56 180 64 22 8 41 11 43 6 2 -5 -11 -35 -28 -67z
m-2515 41 c143 -30 246 -87 353 -196 l52 -54 -14 -40 c-23 -65 -66 -156 -87
-185 -16 -24 -24 -26 -66 -23 -37 3 -42 2 -23 -5 43 -15 -126 -13 -231 3 -52
8 -132 24 -178 35 -46 11 -88 18 -92 15 -11 -6 -59 -76 -87 -124 -42 -73 -88
-147 -109 -174 l-23 -29 -52 41 c-61 47 -109 62 -193 62 -152 -1 -255 -121
-242 -284 5 -55 15 -86 52 -158 52 -102 53 -93 -23 -177 -37 -41 -43 -44 -65
-34 -30 14 -101 155 -122 244 -56 237 37 498 272 764 44 50 110 116 149 148
119 101 292 172 464 190 57 6 190 -3 265 -19z m3745 14 c0 -7 -15 -38 -33 -68
-55 -90 -83 -153 -121 -262 -48 -138 -68 -272 -67 -440 1 -203 33 -335 109
-454 21 -33 41 -64 44 -69 12 -20 -44 -22 -362 -12 -146 5 -268 11 -272 15 -4
4 0 19 10 34 9 14 38 57 63 94 111 165 179 339 209 538 14 89 13 295 -1 371
-6 33 -13 72 -16 86 -6 31 2 35 237 118 174 62 200 69 200 49z m231 -452 c-39
-82 -41 -143 -6 -212 14 -27 36 -61 51 -76 14 -15 23 -32 19 -38 -15 -25 -189
1 -264 40 -23 11 -60 37 -81 57 -35 31 -40 41 -40 79 0 38 6 51 42 90 25 28
69 58 113 79 75 36 188 68 193 54 2 -5 -10 -37 -27 -73z m-1165 52 c-39 -53
-48 -91 -44 -174 3 -65 10 -90 31 -127 15 -25 35 -51 45 -56 55 -33 -94 -37
-204 -6 -59 17 -121 59 -159 109 -23 30 -26 42 -20 72 16 88 199 199 334 203
33 1 33 1 17 -21z m-5940 -92 c243 -43 433 -240 526 -544 16 -54 21 -97 22
-217 1 -133 -2 -158 -23 -225 -24 -75 -75 -170 -91 -170 -5 0 -14 19 -20 43
-63 238 -166 380 -316 437 -79 29 -134 20 -185 -31 -31 -31 -39 -47 -44 -91
-13 -102 57 -251 180 -385 73 -80 158 -129 230 -134 51 -3 65 -14 65 -49 0
-66 -70 -238 -113 -278 -9 -9 -32 -32 -49 -49 -71 -74 -203 -133 -297 -133
l-49 0 16 58 c8 31 16 100 16 152 1 87 -2 100 -28 147 -51 93 -164 156 -246
138 -32 -7 -120 -98 -120 -124 0 -8 -33 -46 -73 -85 -89 -87 -143 -109 -257
-104 -72 3 -75 4 -78 28 -2 14 -10 40 -18 57 -10 22 -14 57 -12 105 4 88 16
95 82 44 91 -69 144 -61 238 35 37 38 70 80 74 94 8 31 26 32 71 4 29 -18 45
-21 103 -17 84 6 128 36 166 115 50 101 35 236 -43 383 -96 181 -194 290 -392
436 -8 6 50 92 100 147 69 77 172 149 262 181 60 23 98 30 212 45 6 0 47 -5
91 -13z m2991 -77 c66 -15 126 -21 240 -22 84 -1 153 -5 153 -9 0 -12 -74
-193 -130 -318 -29 -63 -64 -146 -80 -185 -15 -38 -42 -97 -58 -130 -16 -33
-44 -94 -62 -135 -18 -41 -44 -100 -57 -130 -14 -30 -41 -91 -60 -135 -19 -44
-40 -92 -48 -107 -8 -14 -15 -31 -15 -37 0 -6 -23 -59 -51 -118 -28 -60 -78
-169 -111 -243 -129 -292 -297 -633 -313 -637 -5 -1 -40 60 -78 137 -110 225
-214 348 -383 452 -46 28 -84 53 -84 55 0 2 31 77 69 166 38 89 92 218 121
287 94 227 103 243 181 322 112 111 121 125 105 157 -8 14 -23 35 -35 45 -61
56 -105 199 -82 269 16 47 84 114 130 128 33 10 49 9 93 -5 68 -22 126 -62
151 -104 34 -58 50 -58 86 -1 17 28 31 52 31 54 0 3 15 28 33 57 18 29 55 88
81 131 32 52 54 77 66 77 11 0 59 -9 107 -21z m2546 -128 c7 -6 30 -25 52 -44
99 -84 265 -135 405 -124 111 9 249 56 328 113 21 16 22 15 22 -8 0 -53 -70
-219 -135 -318 -68 -105 -147 -185 -217 -220 -54 -26 -72 -30 -145 -30 -53 0
-82 4 -78 10 3 5 0 7 -9 4 -20 -8 -100 67 -141 131 -31 48 -76 166 -89 230
-20 102 -26 265 -9 265 2 0 9 -4 16 -9z m2012 -58 c-7 -41 -41 -140 -74 -216
-53 -123 -186 -279 -276 -324 -64 -33 -143 -47 -191 -34 -155 42 -270 245
-290 516 l-7 88 25 -6 c14 -4 51 -22 83 -41 31 -20 85 -44 119 -55 202 -66
376 -47 536 58 41 27 77 50 79 50 2 1 0 -16 -4 -36z m-8345 -161 c0 -5 -3 -12
-7 -16 -4 -4 -8 -24 -8 -44 -1 -20 -9 -77 -18 -126 -9 -48 -14 -93 -11 -98 10
-16 -17 -28 -66 -28 -84 0 -90 5 -83 64 11 102 73 201 148 240 34 18 45 20 45
8z m166 -50 c64 -46 118 -103 193 -202 87 -114 148 -234 163 -320 15 -90 5
-136 -42 -182 -34 -35 -42 -38 -91 -38 -31 0 -69 7 -89 18 l-35 17 -6 90 c-10
141 -43 199 -172 302 l-70 56 7 66 c7 72 37 183 56 207 18 21 43 17 86 -14z
m766 -299 c68 -46 101 -84 140 -165 39 -81 56 -138 64 -214 6 -54 4 -64 -14
-82 -22 -22 -54 -19 -117 9 -98 44 -207 184 -255 328 -23 68 -18 104 17 143
29 32 99 24 165 -19z m-983 -62 c11 -11 26 -42 34 -68 28 -92 65 -158 126
-227 33 -38 61 -75 61 -82 0 -24 -41 -88 -82 -128 -36 -35 -42 -38 -81 -33
-50 7 -88 46 -142 149 -64 121 -103 333 -71 383 15 22 23 25 76 25 46 0 65 -5
79 -19z m-235 -54 c3 -18 8 -54 11 -82 10 -86 27 -178 39 -220 18 -61 9 -395
-11 -395 -20 0 -102 88 -141 152 -60 101 -76 160 -77 288 0 106 2 119 27 165
31 59 111 137 132 129 8 -3 16 -20 20 -37z m434 -80 c18 -36 32 -77 32 -93
l-1 -29 -42 46 c-40 44 -90 145 -80 161 2 5 17 1 32 -6 18 -10 39 -38 59 -79z
m6016 67 l76 -7 -6 -36 c-3 -20 -38 -151 -76 -291 -39 -140 -77 -275 -84 -300
-6 -25 -33 -117 -60 -205 -26 -88 -53 -180 -59 -205 -32 -115 -215 -673 -285
-865 -60 -165 -143 -378 -186 -476 -13 -31 -24 -60 -24 -65 -1 -5 -10 -20 -21
-33 -17 -21 -38 -27 -137 -42 -64 -10 -157 -23 -207 -28 -94 -10 -333 -39
-540 -66 -143 -18 -185 -19 -185 -4 0 6 31 82 69 168 87 194 159 376 221 551
26 74 82 232 125 350 42 118 101 283 130 365 30 83 85 242 123 355 223 657
274 806 283 822 9 17 33 18 388 18 208 0 412 -3 455 -6z m424 -1 c-16 -2 -40
-2 -55 0 -16 2 -3 4 27 4 30 0 43 -2 28 -4z m-6087 -526 c51 -35 91 -98 96
-154 6 -60 -20 -172 -45 -193 -10 -9 -17 -21 -14 -28 12 -38 -68 19 -118 83
-40 52 -80 151 -80 199 0 24 36 97 54 108 22 15 74 8 107 -15z m8781 -107 c48
-14 102 -80 115 -141 15 -69 -6 -128 -63 -178 -46 -40 -49 -41 -119 -41 -88 0
-127 22 -168 95 -48 87 -24 187 60 242 44 29 118 38 175 23z m-8982 -118 c0
-31 64 -124 118 -172 67 -59 65 -69 -18 -114 -74 -40 -164 -46 -253 -17 -52
18 -81 36 -134 85 -64 60 -126 146 -104 146 5 0 13 -5 16 -10 4 -7 13 -7 26 0
10 6 19 8 19 4 0 -3 6 -2 13 4 6 5 41 16 77 22 71 14 131 44 169 84 l25 26 23
-22 c13 -12 23 -28 23 -36z m-1025 -553 c46 -13 95 -83 95 -133 -1 -85 -60
-147 -147 -154 -46 -4 -59 -1 -92 22 -63 44 -83 114 -52 180 29 59 112 113
151 99 8 -3 29 -9 45 -14z m-1933 -234 c160 -24 323 -70 438 -123 276 -126
425 -228 645 -442 229 -223 269 -242 655 -330 322 -72 438 -121 606 -252 96
-75 231 -254 315 -418 69 -136 163 -236 266 -285 32 -15 125 -47 207 -72 324
-96 476 -207 516 -375 11 -49 39 -150 69 -253 12 -38 21 -73 21 -77 0 -13
-318 109 -465 178 -38 18 -99 44 -135 59 -82 34 -254 121 -387 197 -56 32
-104 58 -106 58 -9 0 -210 117 -347 202 -212 132 -408 263 -550 369 -69 52
-139 103 -156 114 -17 11 -60 44 -95 73 -226 185 -342 276 -444 348 -16 11
-66 46 -110 78 -254 180 -442 295 -780 477 -69 37 -336 158 -405 184 -150 55
-299 107 -375 131 l-89 28 49 23 c28 12 43 23 35 24 -29 1 155 59 235 74 156
28 249 30 387 10z m-631 -241 c195 -48 408 -133 714 -284 197 -97 478 -256
604 -342 25 -17 60 -41 76 -52 17 -11 59 -40 95 -64 110 -74 255 -181 412
-307 83 -66 172 -136 198 -155 26 -20 69 -54 96 -76 99 -81 499 -358 650 -449
27 -16 74 -45 104 -64 68 -42 115 -69 158 -92 18 -10 39 -23 47 -29 8 -6 31
-21 52 -32 75 -40 600 -303 629 -315 16 -7 88 -37 159 -69 145 -63 235 -98
310 -121 28 -9 55 -19 60 -23 6 -4 22 -10 37 -14 17 -4 54 -38 102 -94 78 -91
133 -141 203 -185 23 -14 44 -31 47 -36 4 -5 20 -12 36 -16 17 -4 30 -10 30
-13 -1 -34 -292 -268 -391 -314 -228 -108 -394 -148 -608 -148 -170 0 -234 11
-336 59 -126 59 -139 73 -316 336 -107 159 -216 280 -298 329 -31 19 -90 45
-131 57 -72 23 -88 24 -405 25 -181 0 -350 4 -375 8 -218 35 -397 103 -559
211 -113 75 -217 201 -268 328 -21 51 -26 83 -29 182 -10 276 -27 317 -170
405 -49 30 -98 60 -109 66 -138 76 -166 92 -355 213 -323 206 -477 341 -609
534 -140 205 -158 428 -44 549 29 31 30 31 184 -8z m14202 -193 c38 -1 36 -27
-10 -115 -126 -243 -323 -407 -578 -480 -163 -47 -431 -62 -625 -36 -52 8
-160 14 -240 14 -171 1 -207 -9 -303 -86 -93 -74 -153 -146 -377 -454 -146
-201 -271 -302 -445 -357 -151 -48 -275 -55 -550 -28 -153 15 -571 16 -675 1
-364 -51 -573 -161 -870 -459 -58 -58 -128 -122 -155 -142 -59 -42 -249 -159
-259 -159 -4 0 -26 -8 -49 -18 -93 -41 -125 -53 -202 -76 -75 -22 -180 -48
-250 -61 -16 -3 -54 -6 -82 -7 -29 0 -53 -5 -53 -10 0 -20 -327 4 -475 35
-245 53 -422 77 -565 77 -127 0 -223 -17 -339 -59 -117 -43 -223 -71 -295 -77
-33 -3 -76 -13 -94 -21 -26 -11 -101 -16 -342 -20 -171 -3 -310 -4 -310 0 0 3
28 22 63 43 204 123 372 250 527 398 126 120 150 136 590 375 167 91 730 367
875 429 77 33 163 70 190 83 58 26 279 118 380 159 242 97 682 250 935 325 69
20 175 52 235 70 171 51 280 80 550 145 335 81 355 86 465 109 52 11 138 29
190 40 52 11 111 23 130 26 19 3 64 12 100 20 269 57 853 150 1210 194 351 43
421 51 615 66 110 8 211 18 225 20 43 8 717 41 790 38 25 0 57 -2 73 -2z
m-4267 -1996 c225 -23 447 -72 684 -152 106 -36 299 -110 355 -136 17 -7 50
-22 74 -33 140 -60 415 -208 556 -297 174 -111 425 -317 425 -349 0 -8 -4 -9
-50 -11 -43 -2 -291 13 -375 23 -44 5 -152 14 -240 20 -88 6 -214 15 -280 20
-181 15 -607 47 -915 70 -151 11 -363 27 -470 36 -107 8 -258 20 -335 25 -77
5 -216 15 -310 23 -93 8 -217 18 -275 21 -58 4 -152 10 -210 15 -58 5 -208 16
-335 25 -126 8 -277 20 -335 25 -154 14 -454 39 -615 50 -144 10 -292 25 -380
38 l-50 8 50 11 c28 7 113 32 190 57 77 25 147 46 157 46 9 0 19 4 22 9 17 27
202 30 359 6 118 -19 286 -50 372 -70 89 -20 374 -38 500 -30 151 9 384 62
515 117 98 42 274 133 330 172 58 41 163 130 230 195 19 19 53 40 75 47 26 8
33 13 20 15 -21 2 43 15 86 18 15 0 93 -6 175 -14z m-3587 -675 c635 -55 1201
-135 1531 -217 124 -30 602 -187 765 -251 61 -24 289 -119 330 -137 17 -8 82
-36 145 -63 273 -117 622 -286 645 -312 23 -25 14 -35 -49 -59 -88 -33 -223
-58 -366 -70 -101 -8 -160 -18 -235 -41 -277 -86 -427 -117 -529 -107 -60 6
-160 38 -227 72 -46 24 -192 127 -259 184 -83 71 -157 121 -230 155 -60 29
-73 31 -175 31 -60 0 -182 -4 -270 -9 -257 -14 -416 10 -581 89 -114 55 -175
110 -296 267 -165 215 -211 271 -312 375 l-99 103 49 0 c26 0 100 -5 163 -10z"/>
<path d="M10555 7960 c-3 -5 1 -10 10 -10 9 0 13 5 10 10 -3 6 -8 10 -10 10
-2 0 -7 -4 -10 -10z"/>
</g>
</svg>
