<?xml version="1.0" standalone="no"?>
<!DOCTYPE svg PUBLIC "-//W3C//DTD SVG 20010904//EN"
 "http://www.w3.org/TR/2001/REC-SVG-20010904/DTD/svg10.dtd">
<svg version="1.0" xmlns="http://www.w3.org/2000/svg"
 width="192.000000pt" height="192.000000pt" viewBox="0 0 192.000000 192.000000"
 preserveAspectRatio="xMidYMid meet">

<g transform="translate(0.000000,192.000000) scale(0.100000,-0.100000)"
fill="#000000" stroke="none">
<path d="M0 960 l0 -960 960 0 960 0 0 960 0 960 -960 0 -960 0 0 -960z m1780
0 l0 -820 -820 0 -820 0 0 820 0 820 820 0 820 0 0 -820z"/>
<path d="M918 1458 c-35 -75 -458 -1046 -458 -1052 0 -4 19 -6 42 -4 l41 3 58
140 57 140 242 0 241 0 59 -140 58 -140 87 -3 c81 -3 87 -1 81 15 -49 128
-472 1073 -480 1073 -7 0 -19 -15 -28 -32z m86 -440 c54 -134 101 -249 103
-255 4 -10 -41 -13 -206 -13 -116 0 -211 3 -211 7 0 13 205 503 210 503 4 0
50 -109 104 -242z"/>
</g>
</svg>
