<?xml version="1.0" standalone="no"?>
<!DOCTYPE svg PUBLIC "-//W3C//DTD SVG 20010904//EN"
 "http://www.w3.org/TR/2001/REC-SVG-20010904/DTD/svg10.dtd">
<svg version="1.0" xmlns="http://www.w3.org/2000/svg"
 width="1400.000000pt" height="1400.000000pt" viewBox="0 0 1400.000000 1400.000000"
 preserveAspectRatio="xMidYMid meet">

<g transform="translate(0.000000,1400.000000) scale(0.100000,-0.100000)"
fill="#ffffff" stroke="none">
<path d="M6425 12705 c-22 -7 -116 -18 -210 -24 -242 -16 -491 -72 -825 -186
-222 -76 -292 -106 -499 -212 -295 -151 -568 -316 -818 -494 -101 -72 -180
-116 -190 -105 -13 12 -4 287 12 378 21 121 61 251 106 348 43 91 59 163 40
174 -15 10 -61 -30 -93 -79 -108 -170 -177 -398 -179 -595 -1 -55 -5 -103 -10
-106 -5 -3 -38 22 -73 55 -114 106 -183 142 -270 142 -30 0 -55 -23 -33 -30
52 -16 305 -240 336 -298 14 -28 6 -33 -67 -43 -181 -25 -362 -74 -470 -128
-91 -45 -234 -151 -330 -246 -137 -133 -243 -330 -292 -541 -21 -90 -24 -124
-24 -350 -1 -169 3 -269 12 -310 87 -403 145 -533 385 -855 125 -167 377 -399
620 -571 296 -208 334 -232 387 -237 39 -3 50 -1 50 10 0 13 -178 183 -266
254 -34 27 -124 159 -124 181 0 5 -9 24 -19 44 -10 19 -31 72 -45 118 -23 72
-26 98 -23 180 6 148 53 230 161 275 127 53 319 -37 428 -201 25 -37 54 -89
65 -114 21 -47 75 -95 93 -84 23 14 10 103 -24 176 -36 77 -37 89 -5 89 10 0
38 9 62 19 23 11 66 25 95 31 28 7 55 16 58 21 3 5 15 9 27 9 12 0 76 14 141
31 126 32 130 32 141 -16 37 -169 50 -223 71 -293 91 -299 243 -486 464 -570
41 -16 122 -32 222 -45 l157 -21 113 26 c249 58 315 95 412 233 61 87 75 126
91 264 13 113 12 136 -5 283 -11 88 -22 168 -25 177 -3 9 -11 57 -19 106 -23
145 -63 329 -91 412 -24 69 -39 93 -111 177 -16 18 -28 19 -193 13 -239 -9
-412 -36 -633 -97 -70 -19 -171 -67 -288 -136 -95 -57 -108 -67 -120 -99 -16
-42 0 -52 52 -31 101 42 147 58 218 76 41 10 118 29 170 43 52 13 136 34 185
45 86 20 126 26 350 57 55 8 127 25 160 39 73 30 76 28 94 -80 7 -44 21 -115
31 -159 71 -307 100 -501 100 -665 0 -127 -3 -153 -24 -212 -13 -36 -33 -80
-45 -97 -29 -40 -168 -151 -189 -151 -10 0 -28 -7 -40 -16 -37 -25 -128 -44
-218 -44 -87 0 -220 22 -264 44 -14 7 -51 26 -84 42 -32 16 -71 44 -87 62 -15
17 -31 32 -35 32 -8 0 -13 6 -89 106 -54 72 -116 190 -167 319 -32 84 -85 248
-92 290 -6 34 -14 63 -42 154 -6 21 -34 -6 -34 -33 0 -12 -6 -30 -13 -40 -11
-15 -137 -52 -377 -111 -30 -8 -82 -21 -115 -29 -90 -23 -94 -23 -85 22 4 20
28 105 53 187 64 215 81 343 79 600 -2 225 -11 336 -43 510 -27 150 -48 214
-113 347 -31 63 -56 120 -56 126 0 19 18 14 99 -28 297 -154 443 -191 786
-201 92 -3 287 24 341 47 49 21 70 14 130 -43 87 -82 127 -116 169 -145 22
-16 58 -42 80 -58 61 -46 219 -124 325 -160 75 -25 138 -36 300 -55 113 -13
208 -21 212 -19 4 3 55 11 113 19 58 7 119 21 137 29 46 23 123 21 149 -5 11
-11 29 -23 41 -28 19 -7 18 -9 -13 -20 -98 -38 -240 -102 -273 -124 -213 -145
-295 -283 -304 -514 -5 -128 8 -169 143 -458 211 -453 310 -824 258 -970 -26
-71 -48 -80 -203 -80 -145 0 -156 -8 -94 -69 55 -53 106 -69 211 -65 80 4 93
7 140 37 61 39 90 97 99 194 3 35 7 74 8 88 3 32 20 34 121 17 119 -21 402
-23 440 -3 17 9 36 16 44 16 8 0 34 12 59 26 56 33 65 25 88 -76 9 -41 21 -95
26 -120 6 -25 10 -133 10 -240 0 -216 -12 -307 -63 -480 -17 -58 -41 -141 -54
-185 -36 -122 -74 -229 -191 -540 -31 -82 -66 -179 -79 -215 -13 -36 -39 -99
-59 -140 -20 -41 -36 -80 -36 -88 0 -19 -76 -241 -100 -290 -11 -22 -20 -47
-20 -55 0 -8 -21 -61 -46 -118 -26 -57 -64 -156 -86 -219 -22 -63 -50 -142
-63 -175 -13 -33 -31 -95 -40 -139 -8 -43 -20 -87 -25 -97 -6 -10 -13 -46 -17
-80 -5 -51 -4 -61 8 -57 8 2 19 14 24 25 6 12 17 28 24 37 39 46 221 421 221
454 0 5 25 69 55 143 31 74 76 188 101 254 78 208 71 196 118 189 64 -8 341
-154 354 -186 2 -4 26 -24 53 -44 106 -77 192 -226 254 -439 32 -108 41 -373
16 -470 -51 -201 -61 -233 -81 -275 -10 -19 -35 -71 -56 -114 -37 -77 -58
-113 -120 -205 -16 -24 -44 -67 -63 -95 -28 -42 -107 -140 -175 -216 -7 -8
-21 -28 -31 -43 -18 -28 -18 -28 9 -56 17 -17 23 -30 16 -33 -14 -4 -3 -58 12
-58 5 0 19 5 31 12 28 14 174 137 207 173 14 15 37 36 52 46 25 18 29 18 50 5
33 -21 216 -201 274 -268 27 -31 139 -150 249 -265 110 -115 227 -239 260
-277 39 -44 76 -76 105 -88 118 -53 144 -9 64 109 -52 75 -157 201 -186 221
-10 7 -55 59 -100 115 -45 56 -193 214 -330 350 -136 136 -248 252 -248 258 0
5 8 22 19 37 17 24 61 94 103 162 37 60 122 295 149 409 26 110 29 143 29 286
0 129 -4 177 -20 241 -21 82 -58 191 -70 209 -4 6 -15 34 -24 62 -10 29 -22
55 -27 59 -5 3 -21 28 -35 56 -14 27 -43 69 -65 93 -21 23 -39 46 -39 51 0 12
-111 120 -167 163 -82 62 -327 161 -400 161 -24 0 -43 4 -43 10 0 5 13 38 29
72 15 35 40 95 54 135 15 40 31 80 36 90 12 20 50 112 93 223 33 84 54 135 93
230 185 451 230 843 140 1220 -21 87 -43 169 -50 179 -10 17 -9 93 2 99 10 7
63 132 63 150 0 5 16 56 35 113 46 139 76 318 70 416 -7 101 -40 307 -76 468
-16 72 -32 154 -36 183 -5 49 -4 54 16 59 14 4 22 14 23 32 2 34 -1 64 -7 70
-6 5 -131 27 -212 37 -29 4 -53 9 -53 11 0 3 19 30 43 61 118 155 202 309 262
482 85 247 106 395 93 656 -7 162 -29 250 -94 397 -63 139 -84 170 -198 283
-76 75 -123 113 -191 151 -120 67 -227 117 -297 137 -31 9 -60 20 -63 25 -3 5
-36 13 -73 16 -37 4 -71 11 -77 15 -11 8 -148 27 -254 34 -35 2 -68 9 -74 15
-15 15 -241 12 -292 -4z m1248 -2469 c22 -10 38 -40 48 -86 3 -19 18 -79 33
-133 51 -194 71 -393 54 -542 -13 -117 -55 -322 -77 -383 -11 -29 -31 -72 -45
-96 -33 -56 -139 -152 -174 -159 -15 -2 -56 -12 -92 -22 -53 -14 -90 -17 -200
-12 -80 3 -153 11 -180 20 -25 9 -58 19 -74 24 -16 4 -32 15 -37 23 -12 25
-45 119 -74 215 -15 50 -32 99 -37 109 -6 11 -19 44 -29 75 -11 31 -68 146
-126 256 -180 336 -178 331 -177 405 1 108 47 168 155 199 35 10 89 29 119 40
69 28 212 60 310 71 93 10 579 7 603 -4z"/>
<path d="M7266 9925 c-27 -8 -80 -35 -118 -61 -64 -44 -165 -146 -180 -182
-10 -25 -9 -70 1 -76 5 -4 38 23 72 60 46 47 84 75 136 100 141 68 217 73 274
18 34 -33 36 -59 10 -111 -25 -49 -37 -216 -19 -275 6 -22 28 -58 48 -80 33
-37 38 -40 59 -29 26 14 53 70 75 155 18 67 8 210 -18 284 -16 43 -63 119
-100 160 -45 51 -138 65 -240 37z"/>
<path d="M12140 11296 c-14 -8 -95 -30 -180 -50 -85 -20 -173 -40 -195 -46
-208 -55 -402 -104 -459 -116 -37 -8 -89 -21 -115 -29 -25 -8 -107 -31 -181
-51 -74 -20 -178 -49 -230 -64 -52 -16 -129 -39 -170 -51 -41 -12 -124 -37
-185 -55 -60 -19 -141 -44 -180 -56 -150 -45 -195 -62 -195 -74 0 -6 24 -54
53 -105 162 -287 355 -787 421 -1090 7 -35 27 -127 44 -204 34 -156 56 -273
71 -385 21 -160 41 -340 50 -460 12 -160 14 -164 60 -156 20 4 72 13 116 21
44 8 114 24 155 35 175 50 184 50 175 -7 -3 -21 -10 -67 -15 -103 -29 -190
-41 -258 -68 -390 -69 -334 -66 -309 -64 -550 1 -124 9 -349 19 -500 22 -361
19 -561 -13 -840 -13 -124 -29 -250 -34 -280 -5 -30 -14 -89 -20 -130 -6 -41
-15 -93 -20 -115 -8 -37 -23 -112 -55 -275 -7 -36 -25 -110 -40 -165 -14 -55
-30 -115 -35 -132 -12 -49 -11 -162 1 -185 12 -23 5 -39 90 197 76 214 188
631 214 800 7 50 20 133 29 185 8 52 17 126 21 163 4 38 10 66 13 62 7 -6 35
-104 62 -215 39 -160 111 -372 166 -487 18 -40 34 -77 34 -83 0 -18 55 -122
115 -220 160 -260 378 -483 549 -564 137 -64 193 -78 303 -74 90 3 103 6 135
30 48 37 62 82 55 178 -4 66 -11 88 -52 165 -26 49 -59 105 -74 125 -15 19
-37 51 -49 71 -23 38 -117 128 -175 169 -20 14 -37 29 -37 34 0 4 17 45 39 90
21 44 53 119 71 166 18 47 52 130 75 185 81 190 197 475 278 685 77 199 82
233 82 570 l0 295 -32 115 c-17 64 -41 143 -53 175 -12 33 -24 74 -27 90 -3
17 -11 37 -18 45 -6 8 -27 42 -45 75 -52 94 -195 270 -211 259 -23 -14 -8 -76
31 -129 22 -30 40 -57 40 -60 0 -3 17 -32 38 -63 119 -182 192 -450 192 -705
0 -255 -86 -581 -229 -875 -17 -34 -31 -65 -31 -68 0 -7 -88 -204 -103 -229
-56 -98 -267 -519 -267 -533 0 -4 -13 -32 -29 -62 -47 -87 -75 -148 -121 -255
-52 -122 -63 -137 -85 -110 -23 29 -125 185 -125 191 0 5 -50 75 -61 84 -5 5
-70 143 -117 250 -75 171 -183 554 -228 810 -39 228 -47 271 -64 350 -51 237
-74 640 -47 830 26 178 75 519 92 630 9 58 24 173 34 255 11 83 22 158 26 168
6 15 24 22 136 53 20 5 29 -32 29 -115 0 -54 -41 -350 -60 -436 -9 -39 -25
-156 -36 -267 -3 -26 0 -93 6 -150 11 -114 39 -172 85 -184 66 -16 120 47 192
221 46 112 117 279 170 400 19 44 55 132 79 195 24 63 51 129 59 145 21 45 95
269 95 288 0 9 9 21 20 27 20 11 28 40 11 40 -9 0 -46 -55 -176 -257 -54 -85
-164 -203 -188 -203 -24 0 -30 35 -22 119 10 105 52 258 84 307 15 22 33 56
40 75 20 57 98 165 154 212 80 67 134 87 192 71 29 -7 89 -110 110 -188 17
-64 18 -71 1 -144 -34 -158 -118 -427 -192 -617 -25 -66 -52 -139 -59 -161 -8
-23 -20 -55 -28 -70 -21 -43 -84 -278 -98 -367 -16 -103 -6 -242 19 -276 10
-14 40 -36 67 -51 63 -34 73 -50 57 -92 -19 -50 -27 -214 -13 -292 33 -187
117 -289 246 -297 117 -6 123 -4 191 64 97 96 131 215 79 271 -28 30 -51 33
-83 10 -39 -27 -50 -62 -45 -145 l5 -76 -32 -7 c-93 -18 -187 19 -222 88 -29
56 -58 179 -58 246 0 60 34 250 50 281 11 20 10 21 -73 34 -21 3 -52 19 -70
35 -30 26 -32 33 -35 108 -5 102 6 154 68 311 27 69 68 178 91 241 24 63 46
120 50 125 5 6 26 56 49 110 91 222 133 333 147 395 21 95 33 231 22 251 -26
49 -1 80 81 102 69 20 140 44 162 57 10 6 36 10 58 10 22 0 48 4 58 9 9 5 24
12 33 15 19 5 20 -8 -12 286 -22 211 -56 425 -88 560 -29 123 -49 208 -62 265
-6 28 -15 64 -20 80 -5 17 -28 98 -50 180 -78 282 -186 564 -302 788 -79 152
-128 195 -187 163z m47 -141 c13 -22 37 -74 54 -115 17 -41 49 -115 70 -163
41 -92 47 -106 96 -247 27 -77 104 -329 139 -455 32 -119 91 -385 99 -455 4
-30 11 -71 15 -90 12 -47 57 -366 65 -462 6 -74 5 -78 -19 -103 -14 -14 -32
-25 -41 -25 -17 0 -125 -42 -167 -65 -14 -8 -40 -15 -56 -15 -26 0 -31 5 -37
30 -8 38 -81 103 -133 118 -60 18 -89 15 -159 -18 -73 -35 -181 -138 -239
-228 -20 -31 -45 -69 -55 -84 -11 -15 -19 -31 -19 -36 0 -13 -176 -73 -400
-136 -125 -36 -336 -101 -405 -126 -77 -28 -134 -40 -141 -29 -3 5 -11 64 -19
132 -28 251 -76 580 -100 682 -8 33 -26 114 -41 180 -51 233 -127 466 -232
715 -88 207 -133 304 -188 402 -61 107 -60 109 23 132 27 7 75 21 108 30 56
16 121 34 485 131 74 20 187 51 251 70 64 19 133 38 155 43 21 6 140 37 264
71 124 34 288 77 365 97 77 20 156 42 175 49 50 19 62 15 87 -30z m-492 -2594
c3 -5 -6 -71 -20 -146 -26 -142 -32 -249 -15 -260 6 -3 10 -17 10 -29 0 -41
32 -69 86 -75 47 -6 49 -7 48 -36 -1 -17 -11 -51 -22 -75 -38 -85 -54 -125
-84 -220 -34 -105 -58 -159 -95 -207 -31 -43 -69 -45 -84 -5 -13 32 -5 228 16
382 32 238 45 372 48 498 4 143 7 149 60 169 41 15 45 15 52 4z"/>
<path d="M5390 10479 c-79 -15 -240 -72 -293 -103 -72 -43 -85 -69 -69 -142 6
-32 17 -61 24 -66 26 -17 217 18 348 63 187 66 280 128 280 187 0 35 -10 49
-43 61 -33 13 -182 13 -247 0z"/>
<path d="M5678 9760 c-73 -13 -203 -87 -280 -159 -37 -35 -68 -70 -68 -77 0
-22 47 -16 67 9 30 38 144 102 220 125 120 37 178 28 236 -38 l28 -31 -32 -36
c-51 -59 -62 -95 -56 -193 3 -47 11 -101 17 -121 13 -45 92 -122 116 -112 55
21 81 226 49 384 -41 202 -131 278 -297 249z"/>
<path d="M6885 7866 c-72 -72 -148 -108 -233 -109 -62 -1 -75 3 -156 46 -48
26 -105 60 -125 76 -46 37 -67 29 -56 -20 5 -23 29 -55 74 -99 59 -58 74 -67
141 -87 147 -42 235 -20 328 82 60 65 107 140 97 155 -9 15 -16 11 -70 -44z"/>
<path d="M3800 7004 c-117 -15 -200 -35 -354 -86 -134 -44 -226 -97 -332 -191
-70 -61 -76 -67 -144 -152 -47 -57 -125 -210 -140 -272 -5 -24 -15 -62 -21
-85 -6 -24 -11 -113 -12 -198 -1 -138 2 -166 26 -255 34 -127 57 -186 114
-294 67 -127 164 -282 207 -330 36 -40 312 -268 370 -305 31 -20 56 -41 56
-48 0 -7 -10 -29 -22 -48 -12 -19 -40 -71 -63 -115 -23 -44 -81 -145 -130
-225 -48 -80 -115 -198 -149 -262 -33 -65 -68 -120 -76 -124 -22 -8 -264 -5
-410 6 -69 5 -208 14 -310 20 -102 5 -246 16 -320 25 -195 21 -318 27 -325 16
-9 -16 -72 -409 -84 -531 -7 -63 -20 -171 -29 -240 -14 -104 -17 -202 -16
-590 1 -310 5 -482 13 -515 6 -27 18 -103 27 -169 8 -65 17 -122 19 -127 3 -4
10 -52 15 -105 13 -147 14 -147 186 -157 76 -4 142 -11 146 -15 13 -13 -38
-166 -101 -304 -17 -38 -68 -175 -112 -305 -103 -301 -108 -313 -170 -463 -41
-98 -53 -140 -56 -194 -4 -50 -1 -71 9 -77 21 -14 124 -11 135 4 11 14 58 124
144 332 34 83 72 170 84 195 12 25 37 88 55 140 38 110 133 373 149 410 5 14
27 68 47 120 20 52 40 99 44 103 4 5 213 8 464 8 365 -1 463 2 489 13 18 7 73
17 121 21 48 4 102 11 119 17 18 5 68 18 112 28 121 28 178 50 198 76 32 42
16 47 -131 41 -73 -3 -140 -11 -147 -17 -8 -6 -76 -15 -152 -20 -76 -5 -178
-14 -228 -20 -125 -16 -769 -10 -787 8 -6 6 -21 12 -32 11 -21 0 -21 0 -1 -9
17 -7 15 -9 -12 -9 -17 -1 -35 4 -38 9 -3 6 -48 10 -98 10 -134 0 -260 16
-273 35 -14 19 -28 131 -65 520 -16 174 -5 732 20 970 36 353 79 647 97 664 9
9 162 1 190 -9 14 -6 91 -13 172 -16 81 -3 194 -10 252 -16 170 -17 290 -20
319 -8 15 6 110 13 216 15 236 5 333 12 410 30 33 8 101 19 150 25 50 5 125
15 169 21 52 7 82 7 88 1 11 -11 -2 -81 -27 -157 -8 -22 -17 -67 -20 -100 -4
-33 -12 -85 -20 -115 -7 -30 -18 -111 -24 -180 -6 -69 -16 -165 -22 -215 -20
-166 4 -655 41 -815 5 -25 16 -83 24 -130 13 -79 48 -230 96 -410 11 -41 23
-87 26 -103 6 -28 24 -48 24 -26 0 8 4 8 15 -1 13 -11 20 -10 41 1 30 16 30
24 -9 174 -14 55 -31 143 -37 195 -14 124 -47 333 -68 440 -15 73 -17 151 -17
535 0 302 4 473 12 520 7 39 21 129 32 200 11 72 24 158 30 193 5 35 8 69 4
77 -7 20 -97 19 -278 -2 -77 -9 -182 -18 -234 -20 l-93 -4 48 88 c26 48 80
146 121 216 40 71 73 131 73 135 0 3 20 38 45 78 25 39 45 75 45 78 0 16 46
76 59 76 7 0 106 -31 220 -69 442 -149 845 -222 1086 -198 109 11 265 34 271
40 11 11 -7 27 -30 27 -13 0 -61 6 -107 14 -46 8 -160 26 -254 40 -252 39
-374 64 -525 108 -138 40 -270 83 -299 98 -9 4 -65 29 -126 56 -60 26 -117 54
-126 61 -8 7 -20 13 -25 13 -15 0 -145 71 -191 104 -23 17 -65 47 -94 66 -53
36 -143 108 -169 135 -8 9 -37 37 -64 63 -58 57 -166 198 -166 218 0 8 -4 14
-8 14 -5 0 -27 39 -50 88 -138 291 -136 544 6 817 60 115 176 220 397 357 54
34 120 61 230 93 163 48 206 66 218 92 8 19 7 27 -6 40 -21 21 -52 23 -167 7z"/>
<path d="M4175 6750 c-117 -9 -261 -34 -325 -56 -58 -20 -150 -65 -150 -73 0
-3 -14 -14 -31 -23 -25 -15 -29 -22 -24 -40 4 -13 11 -27 15 -31 7 -8 107 28
161 58 15 8 59 19 99 25 39 6 91 14 113 20 67 14 287 20 380 10 138 -16 267
-50 427 -113 41 -16 91 -35 111 -43 69 -25 265 -124 330 -166 268 -175 380
-267 630 -517 238 -239 477 -552 619 -811 103 -188 201 -350 211 -350 6 0 21
25 35 55 37 81 43 67 -152 403 -49 85 -96 166 -104 181 -8 15 -47 70 -86 122
-38 52 -86 115 -105 141 -41 56 -121 154 -211 258 -72 83 -318 319 -409 393
-62 50 -287 207 -296 207 -3 0 -31 17 -62 38 -121 82 -388 197 -606 261 -137
40 -401 64 -570 51z"/>
<path d="M7013 4362 c-108 -69 -139 -91 -201 -138 -73 -55 -211 -151 -325
-226 -109 -71 -189 -126 -289 -198 -50 -36 -109 -78 -132 -94 -23 -17 -137
-94 -255 -173 -117 -79 -220 -151 -228 -159 -8 -8 -18 -14 -23 -14 -5 0 -41
-26 -80 -57 -38 -32 -99 -80 -135 -108 -62 -47 -65 -51 -65 -92 0 -33 11 -62
51 -130 29 -48 68 -117 87 -153 40 -74 110 -182 126 -192 11 -7 -17 -40 -140
-163 -263 -264 -438 -464 -539 -615 -16 -25 -33 -48 -38 -51 -4 -3 -27 -34
-50 -70 -24 -35 -67 -99 -97 -142 -30 -43 -66 -97 -80 -121 -14 -24 -37 -61
-51 -82 -65 -98 -141 -227 -165 -280 -15 -33 -53 -113 -85 -179 -33 -66 -59
-128 -59 -137 0 -9 -6 -23 -12 -30 -32 -33 -72 -188 -49 -188 6 0 11 4 11 8 0
4 7 17 15 27 12 17 100 160 379 625 11 19 54 85 96 145 41 61 80 118 85 127
22 36 86 126 130 183 25 33 80 105 121 160 42 55 81 105 87 110 7 6 56 64 109
131 54 66 144 165 200 220 57 55 111 109 120 120 109 126 414 358 608 462 97
52 136 80 148 107 14 30 1 36 -47 19 -20 -7 -48 -13 -63 -14 -16 0 -85 -28
-155 -63 -120 -59 -225 -128 -335 -220 -52 -44 -72 -44 -89 0 -6 16 -21 39
-35 53 -41 43 -164 251 -164 277 0 17 38 53 108 101 18 12 35 22 38 22 6 0 91
60 179 126 73 54 207 148 332 231 40 26 129 90 198 141 69 50 130 92 135 92 4
0 32 20 62 44 30 24 85 65 123 90 39 25 81 54 95 63 45 31 264 205 296 235 25
23 34 27 40 16 24 -38 84 -161 80 -165 -2 -3 2 -12 10 -21 9 -9 35 -47 59 -85
24 -37 63 -92 87 -122 24 -30 70 -91 103 -136 126 -170 406 -464 500 -524 28
-18 73 -51 101 -73 62 -49 153 -114 217 -154 26 -16 47 -34 47 -39 0 -5 9 -9
21 -9 12 0 42 -14 67 -31 25 -17 70 -42 99 -54 29 -13 53 -30 53 -38 0 -8 -23
-34 -51 -58 -118 -100 -261 -227 -362 -322 -60 -56 -147 -138 -195 -182 -100
-93 -460 -444 -612 -599 -58 -58 -112 -106 -121 -106 -16 0 -203 103 -231 128
-24 20 -11 40 70 116 126 116 199 191 199 206 0 8 2 20 3 25 15 63 -61 39
-161 -49 -26 -23 -79 -68 -118 -101 -87 -72 -225 -213 -306 -314 -33 -40 -86
-106 -118 -145 -31 -39 -65 -84 -75 -100 -9 -16 -38 -56 -63 -90 -25 -34 -73
-101 -107 -151 -34 -49 -75 -108 -91 -130 -16 -22 -60 -87 -98 -144 -37 -57
-83 -125 -100 -152 -18 -27 -76 -103 -128 -168 -52 -66 -99 -131 -105 -145
l-10 -26 59 0 58 0 69 73 c107 112 181 203 251 307 35 52 109 160 164 240 55
80 112 163 126 185 35 54 163 232 232 323 31 40 66 87 78 104 13 17 34 41 47
55 l24 24 45 -34 c25 -19 80 -56 124 -82 43 -27 83 -54 88 -60 12 -14 97 -55
114 -55 21 0 100 72 159 145 71 88 412 435 597 608 458 428 735 702 735 728 0
10 -40 35 -117 72 -184 88 -307 161 -453 271 -355 266 -576 497 -801 841 -81
123 -97 152 -153 285 -24 57 -48 105 -53 106 -4 1 -27 -10 -50 -24z"/>
<path d="M12642 4323 c-16 -42 -21 -89 -37 -313 -32 -474 -115 -909 -254
-1340 -92 -284 -134 -400 -165 -460 -7 -14 -16 -38 -20 -55 -4 -16 -32 -81
-61 -142 -30 -62 -59 -130 -65 -151 -5 -22 -23 -57 -39 -79 -16 -23 -42 -65
-56 -94 -66 -131 -227 -386 -310 -489 -24 -30 -44 -60 -45 -67 0 -14 -266
-283 -365 -369 -161 -141 -357 -286 -455 -337 -36 -19 -87 -48 -115 -65 -27
-17 -88 -50 -134 -73 -62 -30 -100 -57 -143 -102 -82 -86 -77 -107 23 -107 48
0 96 15 269 87 280 117 546 295 786 530 119 116 304 325 304 344 0 5 20 34 45
64 69 85 136 189 210 325 37 69 80 148 95 175 81 150 263 586 329 785 46 143
142 489 166 600 48 230 67 340 90 523 22 174 25 242 25 497 l0 294 -27 23
c-33 29 -38 29 -51 -4z"/>
<path d="M10800 4210 c-102 -4 -311 -8 -465 -9 -154 -1 -370 -6 -480 -13 -110
-6 -291 -11 -403 -12 -155 -1 -205 -4 -211 -14 -7 -11 -23 -307 -25 -452 -3
-168 29 -832 44 -930 6 -36 17 -121 25 -190 8 -69 23 -179 35 -245 11 -66 27
-158 35 -205 7 -47 21 -123 29 -170 9 -47 16 -99 16 -116 0 -49 20 -67 86 -74
33 -4 64 -3 70 1 6 5 260 14 565 19 305 6 581 15 614 20 79 13 207 19 499 25
132 3 241 7 243 9 2 2 -5 48 -16 102 -12 55 -25 128 -30 164 -5 36 -16 108
-25 160 -25 159 -45 301 -51 375 -3 39 -10 95 -15 125 -5 30 -16 127 -25 214
-9 87 -17 162 -19 165 -2 3 -9 80 -16 171 -6 91 -16 185 -21 210 -11 51 -27
309 -31 510 -2 100 -7 139 -17 150 -17 18 -138 21 -411 10z m290 -120 c11 -11
20 -32 20 -47 0 -16 7 -107 15 -203 8 -96 22 -281 30 -410 8 -129 17 -253 20
-275 3 -22 15 -112 25 -200 11 -88 29 -225 40 -305 11 -80 24 -179 29 -220 12
-95 25 -176 47 -312 10 -59 15 -110 12 -114 -15 -14 -200 -24 -663 -34 -618
-13 -1031 -27 -1067 -36 -26 -6 -29 -3 -48 41 -12 27 -26 99 -35 169 -7 66
-23 198 -34 291 -11 94 -24 208 -30 255 -6 47 -15 159 -21 250 -6 91 -13 185
-15 210 -18 237 -25 874 -10 889 6 5 96 12 200 14 105 3 294 10 420 16 127 5
388 13 580 17 193 3 370 10 395 14 68 11 69 11 90 -10z"/>
<path d="M6438 3008 c5 -22 -71 -98 -167 -168 -34 -25 -86 -63 -114 -84 -70
-53 -347 -332 -347 -349 0 -8 -16 -34 -35 -58 -40 -50 -67 -103 -123 -240 -37
-91 -39 -102 -41 -217 -1 -72 1 -122 7 -122 5 0 12 -13 16 -30 3 -16 12 -30
19 -30 26 0 95 55 142 115 63 79 171 191 215 221 19 14 61 44 92 67 195 144
200 148 348 215 91 42 173 69 285 96 39 10 85 21 103 26 19 5 40 6 47 4 7 -3
15 2 18 10 4 9 18 16 31 16 15 0 30 8 36 21 9 16 8 20 -2 18 -27 -3 -36 2 -41
22 -6 21 -10 22 -94 16 -48 -3 -101 -10 -118 -16 -16 -5 -73 -24 -125 -40
-180 -57 -271 -100 -418 -194 -40 -26 -81 -47 -91 -47 -25 0 -77 41 -124 97
-17 20 -17 23 -3 52 25 48 225 239 369 353 48 38 87 73 87 76 0 4 13 16 30 27
34 23 45 59 35 120 -5 34 -10 43 -24 42 -12 -1 -17 -7 -13 -19z m-499 -759
c28 -29 51 -55 51 -58 0 -4 -43 -51 -96 -106 -53 -55 -112 -122 -130 -150 -48
-71 -60 -85 -73 -85 -9 0 -11 10 -6 33 34 163 149 417 190 417 7 0 35 -23 64
-51z"/>
<path d="M6928 2375 c-3 -3 -34 -10 -69 -15 -94 -15 -297 -107 -479 -218 -100
-61 -284 -208 -341 -274 -26 -29 -71 -78 -100 -108 -85 -87 -99 -109 -99 -156
0 -24 4 -46 10 -49 5 -3 23 9 39 27 50 57 242 243 321 310 150 128 388 260
680 378 30 12 68 32 85 45 27 22 28 25 10 31 -11 4 -27 13 -36 21 -9 7 -18 11
-21 8z"/>
<path d="M7100 2217 c-86 -31 -148 -59 -190 -87 -8 -6 -44 -24 -80 -40 -103
-48 -305 -194 -490 -356 -186 -162 -241 -235 -244 -323 -2 -69 20 -60 116 48
100 114 349 312 509 406 28 17 70 44 93 60 50 37 180 112 261 152 126 61 193
103 199 126 7 27 0 34 -44 41 -25 5 -61 -3 -130 -27z"/>
</g>
</svg>
