<?xml version="1.0" standalone="no"?>
<!DOCTYPE svg PUBLIC "-//W3C//DTD SVG 20010904//EN"
 "http://www.w3.org/TR/2001/REC-SVG-20010904/DTD/svg10.dtd">
<svg version="1.0" xmlns="http://www.w3.org/2000/svg"
 width="2000.000000pt" height="2000.000000pt" viewBox="0 0 2000.000000 2000.000000"
 preserveAspectRatio="xMidYMid meet">

<g transform="translate(0.000000,2000.000000) scale(0.100000,-0.100000)"
fill="#000000" stroke="none">
<path d="M10440 15525 c-237 -18 -396 -42 -645 -101 -38 -9 -88 -19 -110 -23
-36 -7 -91 -23 -180 -53 -16 -6 -52 -17 -80 -24 -27 -8 -64 -21 -82 -29 -17
-8 -37 -15 -45 -15 -7 0 -22 -6 -33 -14 -11 -7 -31 -17 -45 -21 -34 -10 -132
-55 -150 -69 -8 -7 -42 -23 -75 -35 -33 -13 -67 -29 -75 -36 -8 -6 -42 -25
-75 -40 -57 -28 -125 -65 -200 -110 -19 -11 -60 -36 -92 -55 -32 -19 -71 -47
-88 -62 -16 -16 -46 -39 -65 -52 -87 -58 -150 -97 -167 -103 -10 -4 -29 -14
-43 -23 -14 -10 -59 -39 -100 -66 -41 -27 -77 -51 -80 -54 -11 -11 -66 -48
-95 -63 -16 -8 -50 -34 -75 -57 -25 -23 -67 -57 -95 -74 -27 -18 -84 -64 -125
-103 -41 -39 -88 -77 -105 -86 -34 -18 -117 -97 -220 -210 -53 -58 -76 -77
-96 -77 -17 0 -29 -8 -36 -22 -5 -13 -42 -57 -82 -98 -151 -158 -291 -312
-291 -321 0 -5 -8 -17 -17 -27 -40 -41 -80 -90 -112 -137 -39 -56 -81 -106
-182 -215 -64 -70 -199 -258 -199 -279 0 -5 -18 -31 -39 -59 -40 -50 -78 -112
-142 -230 -84 -156 -99 -182 -131 -224 -18 -24 -46 -73 -62 -108 -38 -86 -82
-176 -139 -283 -26 -48 -47 -93 -47 -99 0 -15 -46 -135 -65 -170 -8 -14 -15
-31 -15 -38 0 -14 -33 -91 -60 -142 -11 -20 -20 -45 -20 -54 0 -10 -9 -47 -19
-83 -25 -84 -56 -228 -78 -356 -24 -140 -24 -409 0 -535 44 -238 83 -388 123
-475 13 -27 32 -77 43 -111 11 -34 27 -74 35 -90 8 -16 19 -40 26 -54 14 -31
44 -85 70 -125 10 -16 37 -61 59 -100 64 -111 210 -245 356 -326 89 -49 296
-149 310 -149 9 0 29 -7 44 -15 16 -8 60 -21 97 -30 38 -9 87 -20 109 -25 70
-16 237 -11 345 10 56 11 116 20 133 20 18 0 52 9 76 20 24 11 47 20 53 20 17
0 292 161 308 181 3 3 15 12 28 18 37 20 60 40 149 131 128 130 138 148 136
239 -2 71 -25 189 -61 306 -18 62 -39 173 -78 420 -22 143 -37 481 -30 684 7
225 59 532 106 626 15 31 60 176 60 194 0 8 9 38 20 66 10 27 33 87 51 133 17
45 36 85 40 88 5 3 9 14 9 25 0 11 9 37 20 59 11 22 20 49 20 61 0 27 62 89
89 89 56 0 310 117 411 189 25 17 56 39 70 49 14 9 27 19 30 22 3 3 30 22 60
42 30 20 71 51 90 68 117 107 171 130 221 92 13 -10 35 -23 49 -30 14 -7 43
-23 65 -37 22 -13 49 -29 60 -34 11 -6 38 -22 60 -36 22 -14 55 -32 73 -41 19
-8 58 -31 88 -51 51 -34 55 -35 73 -19 10 9 45 27 77 39 37 15 59 29 59 39 0
22 -219 197 -295 236 -14 7 -34 18 -45 25 -122 76 -137 95 -111 143 17 30 19
34 72 119 16 28 43 77 60 110 16 33 43 80 60 105 17 25 46 77 63 115 18 39 48
102 66 140 63 135 75 162 75 168 0 3 18 37 40 76 22 39 40 76 40 83 0 7 7 26
15 41 8 16 19 46 25 68 6 21 15 39 19 39 5 0 18 -15 29 -34 19 -32 29 -63 63
-186 6 -25 20 -67 29 -95 10 -27 27 -81 39 -120 28 -86 53 -151 115 -287 14
-31 26 -61 26 -67 0 -13 78 -162 95 -181 7 -8 35 -58 62 -110 60 -116 114
-198 235 -356 129 -168 186 -230 313 -342 98 -87 127 -109 186 -147 9 -5 34
-22 55 -36 21 -14 73 -41 114 -59 41 -18 80 -36 85 -40 6 -4 44 -19 85 -33
217 -72 209 -70 347 -71 154 -2 155 -2 204 -105 37 -75 120 -185 192 -251 27
-25 95 -90 152 -146 151 -149 326 -261 560 -358 22 -9 47 -21 55 -25 12 -7 15
-43 18 -212 1 -112 -2 -235 -8 -274 -6 -38 -16 -106 -21 -150 -26 -211 -39
-289 -69 -430 -42 -195 -77 -314 -121 -411 -11 -23 -19 -47 -19 -54 0 -37 -91
-205 -197 -367 -24 -36 -43 -66 -43 -69 0 -5 -91 -136 -99 -144 -3 -3 -28 -32
-55 -65 -56 -68 -102 -119 -231 -260 -49 -54 -113 -127 -141 -161 -28 -35 -63
-73 -76 -86 -69 -65 -230 -244 -264 -294 -54 -79 -71 -105 -90 -139 -9 -16
-30 -47 -47 -68 -42 -54 -77 -106 -77 -116 0 -5 -19 -46 -42 -93 -24 -46 -48
-98 -55 -114 -45 -113 -79 -216 -123 -374 -41 -145 -63 -215 -81 -260 -37 -92
-81 -330 -72 -392 3 -21 0 -52 -7 -70 -13 -38 -35 -263 -31 -323 3 -48 3 -94
0 -217 -2 -51 1 -142 5 -202 7 -96 11 -112 32 -131 20 -19 21 -23 9 -36 -12
-12 -12 -20 3 -62 24 -68 53 -79 173 -68 52 5 123 16 159 25 91 21 563 54 808
55 130 1 133 1 141 -23 10 -25 0 -86 -24 -149 -8 -20 -15 -47 -15 -60 0 -25
-35 -146 -55 -192 -20 -43 -65 -179 -65 -195 0 -7 -9 -31 -19 -54 -10 -23 -32
-70 -49 -106 -16 -36 -46 -99 -66 -141 -20 -42 -36 -79 -36 -83 0 -4 -16 -32
-35 -62 -19 -30 -35 -57 -35 -59 0 -3 -40 -58 -88 -122 -49 -65 -101 -136
-116 -158 -14 -22 -46 -65 -71 -95 -24 -30 -44 -59 -45 -63 0 -4 -17 -30 -37
-57 -21 -26 -51 -67 -68 -90 -49 -69 -297 -302 -376 -355 -41 -27 -106 -74
-144 -105 -77 -60 -73 -57 -197 -129 -49 -28 -93 -51 -98 -51 -6 0 -28 -8 -48
-19 -136 -69 -277 -120 -377 -136 -22 -4 -67 -15 -100 -25 -141 -43 -409 -59
-470 -29 -35 17 -35 22 -16 229 31 334 51 638 52 760 0 92 5 148 14 175 8 22
19 101 25 175 6 74 15 171 20 215 6 44 15 184 20 310 6 127 15 314 22 416 16
259 -1 646 -42 994 -10 88 -22 196 -25 240 -3 44 -10 114 -15 155 -17 125 -30
605 -21 771 17 307 103 608 206 719 18 19 46 54 63 77 31 45 129 157 200 230
23 24 42 46 42 49 0 2 -9 4 -20 4 -27 0 -70 -31 -150 -108 -36 -35 -87 -79
-115 -97 -27 -19 -62 -49 -77 -67 -75 -92 -148 -192 -148 -202 0 -7 -15 -43
-34 -82 -49 -99 -107 -276 -126 -384 -6 -35 -15 -71 -20 -80 -4 -8 -18 -82
-31 -165 -30 -197 -34 -596 -7 -740 10 -49 22 -148 28 -220 5 -71 15 -164 20
-205 12 -89 16 -722 5 -830 -4 -41 -11 -86 -16 -99 -5 -13 -11 -85 -14 -160
-3 -94 -10 -149 -20 -175 -10 -24 -20 -92 -25 -181 -5 -78 -16 -181 -25 -230
-8 -48 -15 -129 -15 -179 0 -51 -6 -117 -14 -147 -8 -30 -18 -95 -21 -144 -4
-50 -13 -130 -20 -180 -13 -85 -23 -208 -24 -302 -1 -39 -4 -44 -35 -57 -80
-33 -1010 -44 -1022 -12 -2 6 5 52 16 101 12 50 28 121 36 159 8 38 19 75 24
81 16 19 60 152 60 180 0 26 22 132 60 295 11 47 20 111 20 143 0 32 7 74 15
94 8 19 18 68 21 107 3 39 14 107 24 151 10 44 22 114 26 155 3 41 11 86 16
100 5 13 11 80 14 150 3 69 12 148 20 175 8 28 21 124 29 215 8 91 17 175 20
187 3 13 12 104 20 204 8 99 17 184 20 189 9 15 29 320 28 425 -3 162 -19 373
-37 470 -52 282 -78 390 -121 500 -7 17 -22 62 -34 100 -12 39 -31 89 -42 113
-10 23 -28 62 -39 87 -11 25 -29 64 -39 88 -11 23 -32 71 -46 107 -15 36 -33
72 -40 80 -17 21 -55 97 -55 111 0 6 -9 30 -19 53 -32 68 -98 286 -111 362 -9
54 -9 87 0 135 23 129 86 185 265 237 39 11 102 30 140 41 39 12 79 21 90 21
12 0 46 9 78 20 31 11 63 20 71 20 9 0 35 9 58 19 54 24 169 61 191 61 9 0 43
9 74 19 32 11 79 22 105 26 26 3 50 10 53 15 14 23 -103 27 -185 6 -30 -8 -89
-19 -130 -25 -41 -6 -97 -18 -124 -26 -27 -8 -62 -15 -77 -15 -30 0 -205 -43
-250 -61 -15 -6 -53 -16 -85 -24 -212 -49 -297 -89 -393 -187 -82 -82 -106
-143 -105 -263 0 -78 27 -190 60 -254 8 -14 14 -33 14 -41 0 -8 9 -33 20 -55
11 -22 19 -46 20 -52 0 -7 9 -32 19 -55 11 -24 29 -69 40 -100 66 -183 88
-239 141 -353 15 -34 40 -97 55 -140 15 -44 34 -91 42 -104 26 -40 83 -285
112 -476 6 -38 15 -92 21 -120 7 -30 12 -176 12 -365 1 -262 -2 -324 -15 -370
-9 -30 -19 -98 -22 -150 -4 -52 -15 -156 -26 -231 -10 -75 -19 -149 -19 -163
0 -15 -11 -38 -25 -51 -22 -23 -32 -25 -117 -25 -54 0 -119 -7 -153 -16 -33
-9 -116 -19 -185 -24 -69 -4 -137 -12 -151 -18 -30 -12 -232 -33 -302 -31 -31
1 -54 -4 -66 -15 -9 -9 -26 -16 -36 -16 -9 0 -52 -9 -94 -19 -42 -11 -101 -25
-131 -32 -221 -48 -471 -122 -585 -173 -16 -8 -55 -24 -85 -36 -129 -52 -209
-99 -329 -195 -69 -56 -144 -119 -167 -141 -59 -57 -168 -221 -241 -364 -36
-68 -68 -127 -72 -130 -11 -7 -55 -113 -82 -195 -12 -38 -31 -91 -41 -117 -10
-26 -18 -55 -18 -66 0 -11 -9 -48 -20 -82 -11 -34 -20 -86 -20 -114 0 -28 -7
-94 -15 -146 -39 -247 -70 -1378 -46 -1671 7 -79 16 -315 21 -524 8 -339 11
-389 30 -460 13 -48 30 -89 44 -104 30 -29 134 -55 170 -42 43 17 67 89 76
228 3 67 11 128 17 135 19 24 22 77 8 125 -20 66 -19 110 3 121 30 16 114 33
202 43 321 34 426 39 923 41 l518 3 5 -22 c3 -12 -4 -54 -16 -95 -12 -40 -30
-102 -41 -138 -53 -180 -61 -207 -74 -230 -46 -86 -85 -171 -85 -189 0 -22 30
-45 71 -55 24 -5 27 -11 32 -71 5 -73 11 -86 30 -63 22 27 91 36 250 30 116
-3 175 -1 238 11 50 9 172 18 299 21 118 4 262 9 320 11 58 3 184 8 280 10 96
3 234 7 306 9 144 4 182 10 234 36 47 24 74 91 57 145 -8 27 -8 44 1 69 7 18
12 46 12 62 0 16 7 40 16 53 12 17 15 35 11 69 -6 45 7 191 21 241 4 15 17 27
35 32 24 7 701 18 2036 34 244 3 449 9 454 12 9 6 236 13 483 17 82 1 106 4
121 19 21 19 68 22 106 8 14 -6 52 -5 99 2 67 9 79 9 103 -7 25 -17 28 -17 46
0 18 16 25 16 72 5 67 -16 71 -15 144 6 62 17 62 17 92 -5 36 -26 53 -27 85
-7 21 14 28 14 69 0 52 -17 70 -13 85 19 9 21 20 25 82 31 64 6 74 5 94 -14
28 -26 58 -27 74 -1 10 16 23 20 71 20 43 0 65 5 84 20 31 25 141 28 171 5 11
-8 41 -15 67 -15 26 0 51 -6 57 -13 12 -15 35 -373 36 -574 1 -91 5 -136 14
-144 17 -18 15 -40 -5 -69 -22 -32 -21 -142 3 -177 8 -14 38 -39 65 -55 34
-22 49 -38 49 -52 0 -26 18 -46 40 -46 22 0 94 76 123 131 50 93 60 151 53
309 -8 181 -22 337 -41 460 -8 52 -20 174 -26 270 -25 423 -47 691 -63 805 -8
55 -20 205 -26 334 -6 129 -12 237 -15 241 -2 3 -8 68 -14 144 -6 76 -18 191
-26 255 -40 294 -45 342 -51 431 -3 52 -15 128 -25 169 -10 41 -19 86 -19 100
0 30 -36 237 -51 296 -24 93 -39 134 -73 207 -20 42 -36 80 -36 83 0 4 -27 61
-59 128 -32 67 -62 129 -65 137 -4 8 -18 33 -31 55 -13 22 -33 56 -44 76 -28
51 -221 258 -289 311 -87 67 -159 112 -247 152 -44 21 -87 41 -97 46 -24 13
-271 95 -358 118 -279 77 -715 101 -1283 73 -130 -7 -241 -10 -245 -7 -15 9
-35 289 -29 387 23 361 29 432 42 494 8 39 19 108 25 155 5 47 16 103 24 125
8 22 15 49 16 60 0 11 6 29 14 40 7 11 21 47 30 80 9 33 25 92 37 130 11 39
27 91 34 116 7 26 20 60 29 77 9 17 16 37 16 44 1 7 9 31 20 53 11 22 19 45
20 52 0 18 95 208 133 270 18 28 49 71 69 95 20 24 57 69 81 101 45 58 112
132 377 417 185 199 248 269 283 314 20 26 35 36 56 36 24 0 34 -10 65 -58 20
-32 48 -65 64 -74 15 -9 40 -28 55 -42 49 -46 107 -63 107 -32 0 19 14 28 35
20 15 -6 15 -8 -1 -25 -21 -23 -19 -24 101 -43 119 -20 193 -38 230 -58 17 -8
63 -18 103 -20 40 -3 79 -11 85 -17 15 -15 98 -14 122 3 31 21 96 26 138 11
43 -15 77 -9 130 23 26 16 56 21 152 24 117 4 122 6 205 47 188 94 328 225
404 378 25 50 46 98 46 105 1 7 9 31 20 53 11 22 19 46 20 53 0 8 6 28 14 45
35 76 103 306 146 492 10 44 23 93 29 108 6 16 11 42 11 58 0 16 7 46 16 67
43 103 87 466 100 817 5 158 2 239 -26 610 -15 188 -42 353 -74 450 -9 28 -32
100 -52 160 -35 104 -43 135 -78 315 -8 41 -22 89 -30 105 -9 17 -16 40 -16
53 0 12 -6 37 -14 55 -7 18 -16 55 -20 82 -8 51 -27 103 -94 255 -32 73 -91
192 -114 230 -11 19 -54 99 -94 178 -41 79 -83 155 -93 168 -11 14 -29 45 -41
70 -12 24 -26 46 -31 50 -5 3 -16 20 -24 37 -23 47 -78 132 -95 147 -3 3 -19
28 -34 55 -16 28 -44 68 -62 91 -18 22 -45 67 -60 100 -70 152 -81 171 -139
227 -371 362 -459 446 -560 537 -65 58 -141 133 -169 166 -77 93 -162 158
-301 230 -16 8 -48 26 -70 39 -22 13 -73 40 -112 60 -40 20 -75 40 -78 46 -6
9 -187 99 -200 99 -4 0 -26 8 -49 19 -97 44 -300 106 -431 132 -27 6 -70 15
-95 21 -25 5 -72 14 -105 19 -33 6 -98 17 -145 26 -112 20 -467 42 -655 41
-82 0 -224 -6 -315 -13z m-673 -1071 c-3 -3 -12 -4 -19 -1 -8 3 -5 6 6 6 11 1
17 -2 13 -5z m2963 -5434 c-13 -27 -29 -51 -36 -54 -20 -8 -18 0 17 61 38 66
51 62 19 -7z m459 44 c11 -9 -15 -24 -45 -24 -34 0 -49 23 -21 33 11 4 57 -2
66 -9z m-568 -3723 c24 -10 68 -22 97 -26 29 -4 72 -18 95 -30 23 -13 71 -38
107 -56 36 -17 72 -38 80 -46 8 -7 44 -33 80 -56 36 -23 91 -64 123 -90 32
-26 61 -47 65 -47 16 0 135 -126 160 -169 15 -26 39 -65 55 -86 42 -60 117
-176 117 -181 0 -2 16 -28 35 -59 20 -30 38 -63 42 -73 3 -9 15 -36 25 -60 11
-24 18 -53 16 -65 -4 -26 -9 -26 -573 -45 -477 -16 -784 -32 -825 -42 -19 -5
-88 -9 -153 -9 -93 0 -119 3 -123 14 -7 16 22 67 78 138 21 27 38 55 38 63 0
8 9 32 19 52 33 65 61 129 61 142 0 6 6 24 14 38 33 59 106 262 106 292 0 8 7
28 15 43 8 15 17 45 21 65 3 20 14 71 24 112 10 41 23 97 30 125 6 27 16 55
22 62 16 19 99 16 149 -6z m-4378 -283 c-1 -59 -9 -136 -17 -170 -8 -35 -20
-106 -26 -158 -6 -52 -15 -108 -21 -124 -5 -16 -14 -69 -19 -117 -6 -49 -15
-99 -20 -111 -6 -13 -17 -57 -24 -98 -8 -41 -21 -95 -30 -120 -8 -25 -24 -97
-36 -160 -11 -63 -22 -115 -23 -116 -1 -1 -12 -5 -24 -8 -18 -6 -28 3 -65 61
-47 73 -72 118 -135 253 -58 122 -74 159 -88 210 -8 25 -23 77 -35 115 -28 93
-59 208 -72 270 -6 28 -19 79 -29 114 -11 35 -19 75 -19 87 0 12 -4 34 -9 48
-7 17 -6 27 2 35 28 23 110 40 242 51 77 7 147 16 157 21 9 5 63 11 118 13 56
3 105 7 108 11 3 3 20 5 37 3 l30 -3 -2 -107z m227 85 c0 -16 -5 -35 -10 -43
-7 -11 -10 -4 -10 28 0 23 5 42 10 42 6 0 10 -12 10 -27z m-1119 -113 c4 -8
12 -53 18 -100 16 -127 30 -214 52 -320 36 -179 51 -235 73 -285 65 -142 66
-144 57 -169 -9 -22 -18 -25 -113 -35 -57 -7 -127 -16 -156 -21 -29 -5 -101
-12 -160 -15 -153 -8 -676 -49 -972 -75 -260 -24 -291 -25 -300 -16 -22 22
-13 57 65 269 16 43 108 186 169 262 46 59 91 103 144 142 20 15 39 31 42 34
3 4 36 24 73 45 38 22 77 44 87 49 10 6 24 16 31 22 29 23 266 103 303 103 11
0 47 9 80 19 63 20 129 35 231 53 33 6 92 21 130 34 76 26 134 28 146 4z
m1079 -50 c0 -5 -5 -10 -11 -10 -5 0 -7 5 -4 10 3 6 8 10 11 10 2 0 4 -4 4
-10z m5381 -1095 c10 -38 23 -101 29 -140 6 -38 17 -99 24 -135 8 -36 20 -101
26 -145 7 -44 16 -105 21 -135 14 -91 14 -231 0 -239 -7 -4 -96 -11 -199 -14
-103 -4 -227 -11 -277 -17 -49 -5 -245 -14 -434 -20 -189 -5 -391 -14 -450
-20 -58 -5 -221 -14 -361 -20 -140 -5 -298 -14 -350 -19 -52 -6 -169 -13 -260
-16 -159 -6 -421 -18 -639 -31 l-104 -6 8 29 c3 15 12 31 18 34 88 50 250 155
302 196 17 13 35 27 40 31 51 38 185 153 205 177 14 16 63 73 110 125 47 52
103 118 125 145 78 99 180 207 210 223 22 11 64 16 155 18 349 6 878 24 980
34 185 16 191 17 504 16 l300 -1 17 -70z m-6086 -115 c28 -9 53 -40 81 -100
14 -31 69 -89 111 -119 41 -28 49 -57 29 -104 -8 -20 -18 -58 -21 -84 -4 -26
-13 -57 -20 -69 -14 -22 -40 -110 -57 -189 -16 -77 -59 -165 -82 -170 -12 -2
-106 -6 -211 -10 -104 -3 -228 -12 -275 -20 -47 -8 -188 -19 -315 -25 -126 -6
-297 -15 -380 -20 -273 -17 -848 -24 -873 -11 -26 14 -28 59 -11 206 5 50 14
167 19 260 10 177 30 299 52 320 29 27 93 36 313 46 127 5 275 14 330 19 55 6
199 15 320 21 158 7 230 14 257 26 22 9 47 13 64 9 33 -9 430 13 464 25 29 10
161 3 205 -11z m1620 -256 c20 -20 3 -44 -31 -44 -17 0 -24 6 -24 20 0 15 20
37 37 40 1 0 9 -7 18 -16z m-30 -132 c-6 -25 -28 -25 -33 0 -2 8 2 28 9 44
l11 29 10 -25 c5 -13 6 -35 3 -48z m-1365 -163 c-25 -138 -147 -585 -157 -575
-4 3 10 61 42 181 7 28 21 86 30 130 9 44 25 109 36 145 10 36 21 83 25 105 7
41 23 80 30 73 2 -2 -1 -29 -6 -59z m1253 -130 c30 -13 34 -39 16 -86 -12 -30
-22 -281 -13 -325 13 -63 36 -17 38 74 2 55 9 78 22 65 12 -11 4 -222 -12
-317 -9 -52 -17 -137 -18 -188 -3 -101 -11 -121 -45 -102 -28 15 -55 5 -76
-26 -15 -24 -21 -25 -68 -19 -29 3 -83 8 -122 10 -38 3 -98 7 -131 11 -50 5
-70 2 -109 -16 -35 -16 -59 -20 -89 -16 -23 3 -90 10 -151 16 -60 5 -155 14
-210 19 -55 6 -155 11 -221 11 -128 0 -135 2 -149 49 -5 16 -4 21 4 17 7 -5
11 6 11 32 0 67 11 102 31 102 10 0 19 -9 22 -22 3 -13 3 9 0 49 -5 77 7 116
33 106 13 -5 14 4 9 60 -5 46 -3 72 6 89 8 13 14 54 15 92 1 71 8 85 62 115
12 7 12 13 -3 41 -21 40 -14 86 19 121 l24 26 284 8 c156 4 335 11 398 15 157
11 389 5 423 -11z m107 -44 c0 -28 -20 -95 -28 -95 -8 0 -4 105 4 130 4 13 6
13 14 0 6 -8 10 -24 10 -35z m4680 -251 c16 -16 16 -206 1 -242 -13 -30 -12
-37 12 -85 l26 -52 -15 -130 c-9 -71 -17 -157 -17 -191 -1 -56 2 -64 36 -106
42 -51 48 -91 16 -108 -16 -9 -19 -18 -14 -38 10 -50 -9 -61 -125 -72 -58 -5
-251 -12 -430 -15 -179 -3 -361 -10 -405 -15 -70 -8 -528 -30 -655 -32 -77 -1
-174 7 -188 15 -7 5 -29 3 -50 -4 -54 -19 -179 -12 -225 12 -49 25 -61 24 -82
-7 -16 -25 -19 -26 -85 -19 -48 5 -75 3 -91 -6 -21 -11 -316 -22 -519 -19
-131 2 -803 2 -860 0 -25 -1 -70 -2 -100 -3 -30 -1 -216 -1 -412 1 -409 2
-396 0 -382 81 14 79 5 224 -15 244 -16 16 -14 77 4 110 8 16 17 52 21 80 10
83 44 220 59 244 8 12 15 33 15 45 0 13 3 34 7 47 5 21 9 23 52 17 89 -14 132
-11 526 26 66 6 172 14 235 19 325 24 380 28 440 38 36 6 155 15 265 21 110 5
261 14 335 20 398 28 752 48 990 55 102 2 201 9 220 15 19 6 76 11 125 11 50
0 169 3 266 7 142 6 180 10 202 25 29 19 63 22 72 7 4 -6 33 -8 73 -4 100 9
528 22 600 19 35 -2 68 -7 72 -11z m-6273 -170 c3 -9 -2 -31 -11 -50 -9 -20
-21 -67 -26 -106 -6 -39 -15 -76 -20 -83 -5 -6 -14 -33 -19 -60 -6 -28 -17
-72 -25 -100 -8 -27 -25 -90 -37 -140 -47 -198 -92 -295 -146 -316 -12 -4
-150 -11 -305 -14 -156 -3 -310 -10 -343 -15 -33 -5 -178 -14 -323 -20 -145
-5 -334 -17 -419 -25 -180 -17 -306 -19 -332 -5 -10 5 -21 24 -25 42 -4 18 -3
199 0 401 7 359 8 369 28 382 30 20 279 43 581 55 705 27 1194 53 1255 65 8 1
48 3 88 4 58 1 74 -2 79 -15z m63 -31 c-11 -17 -11 -17 -6 0 3 10 6 24 7 30 0
9 2 9 5 0 3 -7 0 -20 -6 -30z m-35 -200 c-3 -13 -10 -21 -16 -18 -10 7 -3 90
10 110 8 14 14 -62 6 -92z m-30 -43 c7 -23 -4 -108 -15 -115 -11 -7 -20 59
-13 100 6 39 18 45 28 15z m-54 -277 c-8 -14 -10 -3 -11 43 0 33 3 64 8 68 11
12 14 -92 3 -111z m1189 -182 c96 -6 182 -9 191 -6 31 10 42 -21 40 -113 -2
-164 31 -219 37 -61 2 51 8 104 14 118 l10 26 10 -25 c12 -31 4 -179 -11 -208
-6 -12 -15 -69 -20 -127 -8 -109 -17 -132 -46 -121 -13 5 -16 14 -11 39 12 65
19 176 12 193 -11 30 -24 -1 -31 -76 -4 -36 -13 -75 -21 -87 -8 -13 -21 -53
-29 -90 -8 -38 -23 -106 -35 -153 -11 -47 -25 -110 -31 -140 -19 -98 -21 -102
-64 -117 -32 -11 -63 -11 -165 -3 -69 7 -156 19 -195 28 -43 10 -127 17 -220
19 -82 2 -231 7 -330 12 -99 5 -225 9 -281 10 -98 1 -101 2 -112 26 -16 34
-15 45 3 45 21 0 31 30 14 41 -19 11 -17 98 3 113 9 6 17 35 21 70 3 32 12 65
20 75 8 9 17 40 20 70 4 29 13 64 21 76 8 13 18 47 22 76 4 30 13 63 19 74 7
11 15 51 18 89 6 84 28 120 78 124 214 19 766 21 1049 3z m540 -31 c0 -11 -4
-20 -10 -20 -5 0 -10 9 -10 20 0 11 5 20 10 20 6 0 10 -9 10 -20z m-315 -587
c-3 -14 -11 -23 -18 -20 -18 5 -21 44 -6 80 l13 31 9 -34 c4 -18 6 -44 2 -57z"/>
<path d="M9176 2503 c-19 -99 -17 -223 4 -223 17 0 27 112 17 194 -7 58 -13
67 -21 29z"/>
<path d="M7891 2264 c0 -11 3 -14 6 -6 3 7 2 16 -1 19 -3 4 -6 -2 -5 -13z"/>
<path d="M7607 1233 c-2 -4 -1 -17 3 -28 7 -19 8 -19 15 -2 8 18 -9 46 -18 30z"/>
<path d="M14090 13626 c0 -8 5 -18 10 -21 6 -3 10 3 10 14 0 12 -4 21 -10 21
-5 0 -10 -6 -10 -14z"/>
<path d="M10046 11773 c-3 -21 -6 -57 -6 -81 0 -23 -6 -58 -14 -76 -8 -19 -17
-65 -21 -103 -3 -37 -14 -120 -25 -183 -22 -132 -37 -244 -51 -380 -6 -52 -17
-133 -25 -180 -8 -46 -20 -134 -25 -195 -5 -60 -14 -126 -19 -145 -16 -57 -13
-137 6 -144 28 -11 140 -6 156 7 42 33 57 170 74 667 2 74 5 148 6 165 2 23
-2 30 -17 33 -30 6 -45 22 -45 47 0 27 22 47 47 43 28 -5 32 58 3 67 -44 14
-53 45 -41 157 6 57 17 119 25 138 11 29 12 50 3 118 -6 45 -14 82 -18 82 -3
0 -9 -17 -13 -37z"/>
<path d="M8982 11648 c-63 -31 -142 -227 -142 -353 0 -81 22 -133 73 -177 38
-33 74 -35 121 -8 48 29 85 135 103 295 10 93 -34 210 -90 242 -26 15 -35 15
-65 1z m75 -110 c25 -23 29 -43 12 -53 -14 -9 -59 34 -59 57 0 24 19 23 47 -4z"/>
<path d="M11210 11511 c-60 -24 -115 -92 -138 -171 -30 -106 -34 -128 -28
-202 11 -135 59 -208 136 -208 49 0 98 77 154 240 50 147 44 269 -16 311 -34
24 -86 39 -108 30z"/>
<path d="M9520 9865 c-20 -25 -4 -80 33 -107 38 -29 111 -68 187 -100 51 -21
69 -23 235 -22 168 1 185 3 259 28 43 15 88 33 99 41 12 8 29 15 39 15 10 0
32 13 50 29 29 26 31 31 20 55 -12 28 -47 35 -81 17 -27 -15 -207 -51 -286
-57 -38 -4 -92 -2 -120 4 -27 6 -86 17 -129 26 -44 9 -84 20 -90 25 -16 13
-159 61 -183 61 -11 0 -26 -7 -33 -15z"/>
<path d="M9245 9180 c-3 -5 1 -10 10 -10 9 0 13 5 10 10 -3 6 -8 10 -10 10 -2
0 -7 -4 -10 -10z"/>
<path d="M9326 9095 c-3 -8 -11 -15 -18 -15 -8 0 -38 -13 -68 -30 -103 -55
-179 -90 -199 -90 -10 0 -43 -8 -73 -19 -29 -10 -87 -29 -128 -41 -41 -12 -99
-30 -128 -41 -30 -10 -63 -19 -73 -19 -11 0 -37 -8 -57 -19 -20 -10 -55 -27
-77 -37 -76 -36 -135 -103 -135 -155 0 -25 25 -108 50 -164 61 -135 127 -262
152 -291 26 -29 29 -40 26 -81 l-3 -48 60 -6 c33 -4 69 -3 81 1 24 9 64 84 64
119 0 12 9 39 20 61 11 22 20 46 20 55 0 8 9 32 20 52 11 21 20 42 20 48 0 6
16 35 36 65 20 30 42 67 50 82 22 42 157 172 211 203 49 27 160 65 248 83 51
11 84 18 232 53 45 10 93 19 106 19 32 0 180 39 192 51 46 45 -207 30 -525
-32 -58 -11 -129 -29 -158 -40 -30 -10 -61 -19 -70 -19 -10 0 -29 -6 -44 -14
-14 -8 -43 -19 -63 -26 -20 -7 -49 -18 -63 -26 -15 -8 -32 -14 -39 -14 -18 0
-80 -41 -113 -75 -71 -72 -123 -149 -177 -258 -48 -97 -56 -93 -122 56 -28 63
-29 174 -3 205 17 20 120 72 141 72 6 0 28 9 48 20 21 11 45 20 53 20 8 1 33
9 55 20 22 11 47 20 55 20 8 0 27 6 41 14 14 7 38 16 53 20 27 7 182 81 246
118 32 18 100 95 100 111 0 14 -38 6 -44 -8z"/>
<path d="M9950 8770 c-78 -26 -167 -50 -180 -50 -20 0 -146 -44 -162 -57 -19
-15 -125 -63 -138 -63 -7 0 -24 -6 -38 -14 -15 -8 -54 -27 -87 -43 -86 -40
-201 -158 -239 -243 -32 -74 -59 -129 -133 -273 -29 -56 -52 -110 -53 -119 0
-10 -8 -37 -19 -60 -34 -79 -42 -111 -28 -120 40 -25 97 10 155 97 23 35 42
67 42 72 0 4 20 49 44 98 24 50 70 143 102 209 76 157 125 217 212 257 37 17
103 48 147 69 115 54 152 70 162 70 4 1 26 9 48 20 22 11 45 19 51 20 6 0 32
16 58 36 25 19 60 40 76 46 19 6 30 17 30 28 0 10 6 21 13 23 20 9 -36 5 -63
-3z"/>
<path d="M10045 8579 c-4 -5 -17 -15 -28 -20 -12 -5 -42 -23 -67 -39 -25 -16
-76 -45 -115 -65 -38 -20 -83 -45 -100 -55 -16 -11 -43 -27 -60 -36 -74 -38
-108 -65 -201 -159 -121 -122 -185 -214 -251 -365 -41 -91 -61 -136 -77 -170
-18 -40 -45 -129 -53 -179 -6 -39 6 -51 55 -51 29 0 37 7 76 68 24 37 49 86
55 109 6 23 15 45 20 47 5 3 12 18 16 33 9 38 84 192 110 224 11 15 38 57 60
94 47 79 143 206 194 255 41 40 84 69 189 130 101 58 221 156 222 183 0 11
-38 8 -45 -4z"/>
</g>
</svg>
